
<svg width="60px" height="60px" viewBox="0 0 60 60" version="1.1" xmlns="http://www.w3.org/2000/svg" xmlns:xlink="http://www.w3.org/1999/xlink">
    <g id="UnSheltered-Landing-Red" stroke="none" stroke-width="1" fill="none" fill-rule="evenodd">
        <g id="Mobile" transform="translate(-452.000000, -473.000000)" fill="#FFFFFF" fill-rule="nonzero">
            <g id="tab-bar" transform="translate(0.000000, 444.000000)">
                <g id="icon-(4)" transform="translate(452.000000, 29.000000)">
                    <path d="M29.53,0 C13.2225,0 0,13.2225 0,29.53 C0,45.8375 13.2225,59.0625 29.53,59.0625 C45.8375,59.0625 59.0625,45.8375 59.0625,29.53 C59.0625,13.2225 45.8375,0 29.53,0 Z M35.6775,45.7675 C34.1575,46.3675 32.9475,46.8225 32.04,47.1375 C31.135,47.4525 30.0825,47.61 28.885,47.61 C27.045,47.61 25.6125,47.16 24.5925,46.2625 C23.5725,45.365 23.065,44.2275 23.065,42.845 C23.065,42.3075 23.1025,41.7575 23.1775,41.1975 C23.255,40.6375 23.3775,40.0075 23.545,39.3 L25.4475,32.58 C25.615,31.935 25.76,31.3225 25.875,30.7525 C25.99,30.1775 26.045,29.65 26.045,29.17 C26.045,28.315 25.8675,27.715 25.515,27.3775 C25.1575,27.04 24.485,26.875 23.4825,26.875 C22.9925,26.875 22.4875,26.9475 21.97,27.1 C21.4575,27.2575 21.0125,27.4 20.6475,27.54 L21.15,25.47 C22.395,24.9625 23.5875,24.5275 24.725,24.1675 C25.8625,23.8025 26.9375,23.6225 27.95,23.6225 C29.7775,23.6225 31.1875,24.0675 32.18,24.9475 C33.1675,25.83 33.665,26.9775 33.665,28.3875 C33.665,28.68 33.63,29.195 33.5625,29.93 C33.495,30.6675 33.3675,31.34 33.1825,31.9575 L31.29,38.6575 C31.135,39.195 30.9975,39.81 30.8725,40.4975 C30.75,41.185 30.69,41.71 30.69,42.0625 C30.69,42.9525 30.8875,43.56 31.2875,43.8825 C31.6825,44.205 32.375,44.3675 33.355,44.3675 C33.8175,44.3675 34.335,44.285 34.92,44.125 C35.5,43.965 35.92,43.8225 36.185,43.7 L35.6775,45.7675 Z M35.3425,18.5725 C34.46,19.3925 33.3975,19.8025 32.155,19.8025 C30.915,19.8025 29.845,19.3925 28.955,18.5725 C28.07,17.7525 27.6225,16.755 27.6225,15.59 C27.6225,14.4275 28.0725,13.4275 28.955,12.6 C29.845,11.77 30.915,11.3575 32.155,11.3575 C33.3975,11.3575 34.4625,11.77 35.3425,12.6 C36.225,13.4275 36.6675,14.4275 36.6675,15.59 C36.6675,16.7575 36.225,17.7525 35.3425,18.5725 Z" id="Shape"></path>
                </g>
            </g>
        </g>
    </g>
</svg>