
<svg width="56px" height="60px" viewBox="0 0 56 60" version="1.1" xmlns="http://www.w3.org/2000/svg" xmlns:xlink="http://www.w3.org/1999/xlink">
    <g id="UnSheltered-Landing-Red" stroke="none" stroke-width="1" fill="none" fill-rule="evenodd">
        <g id="Mobile" transform="translate(-742.000000, -473.000000)" fill="#FFFFFF" fill-rule="nonzero">
            <g id="tab-bar" transform="translate(0.000000, 444.000000)">
                <g id="share-(2)" transform="translate(742.000000, 29.000000)">
                    <path d="M45.8181818,39.6610169 C43.0986182,39.6610169 40.5419636,40.7186441 38.6186182,42.639661 C38.0850909,43.1725424 37.6258909,43.7583051 37.2288,44.3776271 L19.6346182,33.7108475 C20.0999273,32.5474576 20.3636364,31.2823729 20.3636364,29.9552542 C20.3636364,28.6281356 20.0999273,27.3630508 19.6356364,26.199661 L37.2338909,15.6142373 C39.0421818,18.4494915 42.2097455,20.3389831 45.8181818,20.3389831 C51.4324364,20.3389831 56,15.7769492 56,10.1694915 C56,4.5620339 51.4324364,0 45.8181818,0 C40.2039273,0 35.6363636,4.5620339 35.6363636,10.1694915 C35.6363636,11.4467797 35.8837818,12.6650847 36.3154909,13.7918644 L18.6948364,24.3915254 C16.8743273,21.6213559 13.7403636,19.7857627 10.1818182,19.7857627 C4.56756364,19.7857627 0,24.3477966 0,29.9552542 C0,35.5627119 4.56756364,40.1247458 10.1818182,40.1247458 C13.7403636,40.1247458 16.8733091,38.2891525 18.6938182,35.5189831 L36.3124364,46.2 C35.8746182,47.3450847 35.6363636,48.5684746 35.6363636,49.8305085 C35.6363636,52.5467797 36.6952727,55.1013559 38.6186182,57.0213559 C40.5419636,58.9423729 43.0986182,60 45.8181818,60 C48.5377455,60 51.0944,58.9423729 53.0177455,57.0213559 C54.9410909,55.1013559 56,52.5467797 56,49.8305085 C56,47.1142373 54.9410909,44.559661 53.0177455,42.639661 C51.0944,40.7186441 48.5377455,39.6610169 45.8181818,39.6610169 Z" id="Shape"></path>
                </g>
            </g>
        </g>
    </g>
</svg>