
<svg width="77px" height="60px" viewBox="0 0 77 60" version="1.1" xmlns="http://www.w3.org/2000/svg" xmlns:xlink="http://www.w3.org/1999/xlink">
    <g id="UnSheltered-Landing-Red" stroke="none" stroke-width="1" fill="none" fill-rule="evenodd">
        <g id="Mobile" transform="translate(-145.000000, -473.000000)" fill="#FFFFFF" fill-rule="nonzero">
            <g id="tab-bar" transform="translate(0.000000, 444.000000)">
                <g id="video-player-(3)" transform="translate(145.728814, 29.000000)">
                    <path d="M74.956166,0 L1.31502046,0 C0.589129164,0 0,0.583043478 0,1.30434783 L0,58.6956522 C0,59.4169565 0.589129164,60 1.31502046,60 L74.956166,60 C75.6820573,60 76.2711864,59.4169565 76.2711864,58.6956522 L76.2711864,1.30434783 C76.2711864,0.583043478 75.6820573,0 74.956166,0 Z M13.1502046,57.3913043 L2.63004091,57.3913043 L2.63004091,45.6521739 L13.1502046,45.6521739 L13.1502046,57.3913043 Z M13.1502046,43.0434783 L2.63004091,43.0434783 L2.63004091,31.3043478 L13.1502046,31.3043478 L13.1502046,43.0434783 Z M13.1502046,28.6956522 L2.63004091,28.6956522 L2.63004091,16.9565217 L13.1502046,16.9565217 L13.1502046,28.6956522 Z M13.1502046,14.3478261 L2.63004091,14.3478261 L2.63004091,2.60869565 L13.1502046,2.60869565 L13.1502046,14.3478261 Z M48.0469024,31.1008696 L33.5816774,40.2313043 C33.367329,40.3656522 33.1214202,40.4347826 32.8755114,40.4347826 C32.657218,40.4347826 32.4402396,40.3813043 32.2429866,40.2743478 C31.82218,40.0447826 31.5604909,39.6065217 31.5604909,39.1304348 L31.5604909,20.8695652 C31.5604909,20.3934783 31.82218,19.9552174 32.2429866,19.7256522 C32.6637931,19.4973913 33.1766511,19.5143478 33.5829924,19.7686957 L48.0482174,28.8991304 C48.4256283,29.1391304 48.6557569,29.553913 48.6557569,30 C48.6557569,30.446087 48.4256283,30.8608696 48.0469024,31.1008696 Z M73.6411455,57.3913043 L63.1209819,57.3913043 L63.1209819,45.6521739 L73.6411455,45.6521739 L73.6411455,57.3913043 Z M73.6411455,43.0434783 L63.1209819,43.0434783 L63.1209819,31.3043478 L73.6411455,31.3043478 L73.6411455,43.0434783 Z M73.6411455,28.6956522 L63.1209819,28.6956522 L63.1209819,16.9565217 L73.6411455,16.9565217 L73.6411455,28.6956522 Z M73.6411455,14.3478261 L63.1209819,14.3478261 L63.1209819,2.60869565 L73.6411455,2.60869565 L73.6411455,14.3478261 Z" id="Shape"></path>
                </g>
            </g>
        </g>
    </g>
</svg>