<?xml version="1.0" encoding="utf-8"?>
<!-- Generator: Adobe Illustrator 15.0.0, SVG Export Plug-In . SVG Version: 6.00 Build 0)  -->
<!DOCTYPE svg PUBLIC "-//W3C//DTD SVG 1.1//EN" "http://www.w3.org/Graphics/SVG/1.1/DTD/svg11.dtd">
<svg version="1.1" id="Layer_1" xmlns="http://www.w3.org/2000/svg" xmlns:xlink="http://www.w3.org/1999/xlink" x="0px" y="0px"
	 width="1728px" height="1296px" viewBox="0 0 1728 1296" enable-background="new 0 0 1728 1296" xml:space="preserve">
<g>
	<path fill="#FFFFFF" d="M1694.226,454.778c-7.854,0-14.138,0.785-14.138,0.785s-10.211,0.785-17.281,2.356
		c-7.068,1.571-9.425,2.356-9.425,2.356l-14.924,3.927l-28.276,7.855l-23.563,6.283c-6.284,1.571-12.567,3.142-18.065,3.928
		c-6.283,0.785-11.782,1.57-15.709,1.57c-14.924,0-28.276-2.356-33.774-10.996c-8.641-13.353-8.641-19.637-11.782-32.204
		c-1.57-7.068-2.356-11.781-3.927-18.851c-1.571-8.64-1.571-11.782-2.356-18.851c-1.571-10.997-2.356-19.637-3.143-26.706
		c-0.785-7.068,0-0.785-3.142-14.924c-2.356-15.709-11.781-27.49-20.422-31.418c-8.64-3.927-21.992-6.283-35.345-1.57
		c-14.924,5.498-30.633,18.851-42.415,29.847c-12.567,11.782-20.422,23.563-38.487,42.415c-4.713,4.713-5.498,5.498-11.781,12.567
		c-4.713,4.712-8.641,9.425-12.567,13.353c-10.997,10.996-21.208,21.207-31.419,32.203c-18.064,14.924-32.203,29.062-44.771,40.059
		s-24.349,20.422-33.774,28.276c-10.211,8.64-19.637,16.494-27.491,19.637c-8.64,3.142-14.923,6.283-24.349,4.712
		c-5.498-1.57-13.353-4.712-16.495-15.709c-3.142-10.996-4.713-24.349-2.356-48.698c1.571-11.781,3.928-28.276,7.069-42.414
		c3.142-14.139,7.854-29.848,13.353-47.128c3.928-14.138,7.854-27.49,14.139-40.843c10.996-24.35,4.713-12.567,19.636-41.63
		c8.641-17.279,9.426-18.851,12.567-24.349c3.143-4.713,4.713-9.425,6.284-14.138c1.57-4.713,2.356-7.854,2.356-10.211
		c1.57-13.353,0-16.495-3.143-21.208c-3.927-4.712-14.923-10.21-23.563-10.21c-4.712,0-17.279,0.785-29.062,3.927
		c-12.567,3.142-22.778,10.211-45.557,27.491c-14.138,10.997-26.705,24.349-39.272,36.917
		c-13.353,13.353-25.92,25.135-37.702,36.916c-14.923,11.782-27.49,24.35-40.844,36.131c-13.353,11.782-25.92,23.563-38.486,36.131
		c-19.637,17.28-32.989,28.276-40.844,34.561c-11.782,9.425-21.993,17.279-31.418,25.135l0,0
		c-9.426,7.068-21.993,16.494-28.277,18.851c-7.854,2.356-8.64,2.356-16.494,2.356c-10.211,0-16.494-3.928-24.349-10.211
		c-7.854-6.284-14.139-14.924-20.422-27.491c-10.211-21.207-19.637-44.771-32.204-68.334c-7.854-15.71-21.207-21.993-34.56-28.276
		c-13.353-6.284-29.062-8.641-46.342-8.641c-8.641,0-19.637,1.571-31.419,4.713c-11.781,3.142-25.92,7.854-40.843,13.353
		c-13.353,6.284-25.135,11.782-35.346,17.28s-18.851,10.996-25.92,16.494c-4.713,3.928-10.211,7.069-14.139,10.997
		c-4.713,3.927-6.283,4.712-9.425,7.068c-6.284,4.713-14.924,10.211-25.92,19.637c-7.855,6.283-15.71,11.782-22.778,18.065
		c-4.713,4.713-14.924,10.996-30.633,23.563c-8.641,7.854-15.709,13.353-21.208,18.852c-3.142,3.142-5.498,4.712-8.64,7.068
		c-4.713,3.928-0.785,0.786-6.283,3.928c-3.928,3.142-10.211-1.571-8.641-7.854c0.786-1.571,0.786-3.142,2.356-7.069
		c1.571-3.927,3.928-10.211,7.069-14.924c4.713-7.069,8.64-14.138,13.353-22.778c21.207-41.629,36.131-76.188,45.557-102.108
		s14.138-43.2,14.138-52.626c0-17.28-4.712-29.847-14.138-39.272c-9.426-8.64-24.35-13.353-44.771-13.353
		s-39.272,3.142-57.338,9.426s-34.56,16.495-50.269,29.062c-18.065,14.924-34.56,27.491-47.913,37.702s-24.349,18.852-33.774,25.92
		c-20.422,16.495-38.487,30.633-52.625,42.415c-14.138,11.781-26.706,21.992-36.917,29.848
		c-10.996,7.854-20.422,15.709-29.062,22.777c-8.64,7.069-10.997,8.641-21.208,16.495c-5.498,3.927-10.997,7.069-14.924,9.425
		c-8.64,4.713-11.782,4.713-14.923,5.499c-30.633,6.283-42.415-1.571-43.985-1.571c-5.499-2.356-11.782-7.069-16.495-9.426
		c-7.854-5.498-13.353-2.356-10.997,2.356c7.854,3.928,15.709,18.852,12.567,14.139c9.425,16.494,28.276,71.477,109.963,33.774
		c3.142-1.571,10.211-5.498,14.924-8.64c9.425-5.499,11.782-7.855,19.636-12.567c7.854-5.498,14.138-9.426,19.637-13.354
		c14.923-9.425,7.069-4.712,18.065-11.781c9.425-6.284,21.993-15.709,37.702-28.276c12.567-10.211,23.563-18.065,32.989-22.778
		c9.425-4.713,16.494-7.069,21.993-7.069c6.283,0,10.996,0.786,13.353,2.356c3.142,1.571,3.927,3.928,3.927,6.284
		c0,3.142-0.786,6.283-1.571,10.211c-0.786,3.927-3.142,7.854-5.498,13.353c-3.928,7.069-4.713,9.425-6.284,14.138
		s-2.356,4.713-3.142,7.854c-14.138,33.774-25.92,62.837-36.916,87.972c-10.211,25.134-18.065,43.985-24.349,61.265
		c-5.499,14.924-7.855,19.637-6.284,30.633c1.571,10.997,21.993,20.422,43.985,20.422c10.996,0,21.207-0.785,30.633-2.356
		c9.425-1.57,17.28-4.713,24.349-9.425c7.069-4.713,14.138-9.426,21.993-14.924c7.069-4.713,14.138-10.211,21.993-14.924
		c28.276-20.422,51.84-38.487,70.691-53.411s62.051-47.127,64.407-47.912c36.131-21.208,27.491-16.495,52.626-32.204
		c11.781-7.854,22.777-13.353,32.988-18.851c10.211-4.713,29.062-10.211,31.418-10.997c2.356-0.785,0,0,5.498-0.785
		c23.564-3.927,32.989,8.641,42.415,17.28s16.495,24.349,21.993,33.774c5.498,10.211,9.425,21.207,18.065,34.56
		c6.283,9.426,12.567,14.139,16.494,17.28c8.64,7.854,18.065,14.139,29.848,18.065c11.781,3.928,24.349,6.284,36.916,6.284
		c10.996,0,21.993-1.571,33.774-4.713c10.996-3.142,21.207-8.641,36.131-17.28c9.426-5.498,19.637-11.781,29.848-17.28
		c14.138-7.854,23.563-15.709,29.062-19.636l0,0c5.498-3.928,10.211-7.854,14.924-11.782c4.713-3.142,7.069-6.283,10.211-8.64
		c0,0,43.985-38.487,50.269-40.059c6.284-2.356,7.069,3.928,9.426,9.426c1.571,6.283,3.142,14.924,4.713,25.92
		c0.785,6.283,1.571,9.426,3.142,21.207c1.571,11.782,2.356,27.491,7.854,47.913c4.713,21.207,14.139,37.701,29.848,48.698
		c15.709,10.996,36.131,16.494,62.051,16.494c17.28,0,36.131-3.927,55.768-10.996c19.636-7.069,39.272-18.851,58.909-35.346
		c15.709-12.567,30.632-25.135,46.342-36.916c14.923-12.567,29.847-25.135,45.556-38.487c7.069-5.498,13.354-11.782,19.637-17.28
		c3.928-3.142,6.283-5.498,10.211-9.426c3.928-3.927,5.498-7.068,8.64-3.927c3.928,4.713,7.854,11.781,10.997,17.28
		c4.713,7.068,4.713,7.068,8.64,13.353c12.567,18.065,22.778,36.131,40.844,47.127c18.065,10.211,40.844,15.709,68.335,12.567
		c11.781-1.571,26.705-3.142,48.697-10.211c22.778-7.069,42.415-12.567,81.688-34.56l32.989-21.993l14.138-10.996l21.993-16.495
		c0,0,0,0,13.353-10.211C1719.359,457.92,1702.08,453.993,1694.226,454.778"/>
	<g>
		<path fill="#FFFFFF" d="M151.593,766.604h3.142c0,6.284,5.499,16.494,16.495,16.494c4.713,0,8.64-3.142,8.64-7.854
			c0-3.927-3.142-6.283-8.64-8.64l-8.64-4.713c-7.069-3.927-10.211-10.211-10.211-14.924c0-7.854,7.069-13.353,14.924-13.353
			s10.997,3.142,12.567,3.142c0.785,0,0.785-0.785,0.785-3.142h3.142v17.28h-3.142c0-6.283-4.712-12.567-11.782-12.567
			c-4.712,0-7.854,2.356-7.854,6.284c0,3.927,2.356,5.498,9.426,8.64l7.069,3.927c6.284,3.928,10.211,8.641,10.211,14.139
			c0,9.426-7.854,16.494-18.065,16.494c-7.069,0-11.782-4.712-14.138-4.712c-1.571,0-1.571,1.57-1.571,4.712h-3.142v-21.207H151.593
			z"/>
		<path fill="#FFFFFF" d="M208.931,765.818v-9.426c0-14.924-1.571-17.28-11.782-17.28v-3.142h22.778v29.062
			c0,9.425,3.142,15.709,10.997,15.709c5.498,0,15.709-5.498,15.709-14.924v-9.426c0-14.924-1.571-17.28-11.782-17.28v-3.142h22.778
			v27.491c0,14.924,1.571,17.28,11.782,17.28v3.142l-19.637,3.927c-0.785-1.57-1.571-7.068-2.356-9.425
			c-3.927,3.927-10.996,9.425-19.636,9.425C213.644,788.597,208.931,778.386,208.931,765.818"/>
		<path fill="#FFFFFF" d="M329.105,761.105c0-11.782-5.498-21.207-16.495-21.207c-7.069,0-12.567,4.713-14.923,11.781v18.852
			c3.142,7.068,8.64,11.781,14.923,11.781C323.607,782.312,329.105,772.888,329.105,761.105 M274.124,820.015
			c10.211,0,11.782-2.356,11.782-17.28v-44.771c0-14.924-1.571-17.28-11.782-17.28v-3.142l19.636-3.928
			c0.786,1.571,1.571,6.284,2.356,8.641c4.713-5.498,10.211-8.641,18.851-8.641c14.138,0,25.92,11.782,25.92,26.706
			s-11.782,27.49-25.92,27.49c-7.069,0-14.138-3.142-18.065-8.64v22.778c0,14.924,1.571,17.28,11.782,17.28v3.142h-33.774v-2.356
			H274.124z"/>
		<path fill="#FFFFFF" d="M404.509,761.105c0-11.782-5.498-21.207-16.494-21.207c-7.069,0-12.567,4.713-14.924,11.781v18.852
			c3.142,7.068,8.64,11.781,14.924,11.781C399.011,782.312,404.509,772.888,404.509,761.105 M350.312,820.015
			c10.211,0,11.782-2.356,11.782-17.28v-44.771c0-14.924-1.571-17.28-11.782-17.28v-3.142l19.637-3.928
			c0.785,1.571,1.571,6.284,2.356,8.641c4.712-5.498,10.211-8.641,18.851-8.641c14.139,0,25.92,11.782,25.92,26.706
			s-11.781,27.49-25.92,27.49c-7.069,0-14.138-3.142-18.065-8.64v22.778c0,14.924,1.571,17.28,11.782,17.28v3.142h-33.774v-2.356
			H350.312z"/>
		<path fill="#FFFFFF" d="M478.342,761.105c0-11.782-5.498-21.207-18.065-21.207s-18.065,9.425-18.065,21.207
			s5.498,21.207,18.065,21.207S478.342,772.888,478.342,761.105 M430.429,761.105c0-14.924,13.354-26.705,29.848-26.705
			s29.848,11.781,29.848,26.705s-13.354,27.491-29.848,27.491S430.429,776.029,430.429,761.105"/>
		<path fill="#FFFFFF" d="M502.691,783.098c10.211,0,11.781-2.355,11.781-17.279v-7.069c0-14.924-1.57-17.28-11.781-17.28v-3.142
			l19.636-3.927c0.785,1.57,2.356,7.854,2.356,10.996c3.142-6.284,9.426-10.996,15.709-10.996c7.854,0,11.782,5.498,11.782,9.425
			c0,3.142-1.571,7.069-6.284,7.069c-3.142,0-5.498-2.356-5.498-5.498s-1.57-4.713-4.713-4.713c-3.142,0-11.781,5.498-11.781,17.28
			v7.854c0,14.924,1.57,17.279,11.781,17.279v2.356h-32.988V783.098z"/>
		<path fill="#FFFFFF" d="M566.312,771.316v-29.848h-7.854v-3.142c8.64-1.571,12.567-8.64,13.353-18.065h4.713v16.494h13.353v5.499
			h-13.353v29.847c0,7.069,1.571,10.997,7.069,10.997c2.356,0,6.283-1.571,9.425-4.713l2.357,2.356
			c-3.928,4.713-10.997,8.64-15.71,8.64C571.811,787.811,566.312,783.098,566.312,771.316"/>
		<path fill="#FFFFFF" d="M613.439,713.192c0-3.927,3.143-6.283,6.284-6.283c3.927,0,6.284,3.142,6.284,6.283
			c0,3.928-3.143,6.284-6.284,6.284S613.439,716.335,613.439,713.192 M603.229,783.098c10.211,0,11.781-2.355,11.781-17.279v-7.069
			c0-14.924-1.57-17.28-11.781-17.28v-3.142l21.992-3.927v31.418c0,14.924,1.571,17.279,11.782,17.279v2.356h-33.774V783.098z"/>
		<path fill="#FFFFFF" d="M644.858,783.098c10.211,0,11.781-2.355,11.781-17.279v-7.069c0-14.924-1.57-17.28-11.781-17.28v-3.142
			l19.636-3.927c0.786,1.57,2.356,7.854,2.356,10.996c3.928-4.713,10.997-10.996,20.422-10.996c13.353,0,19.637,9.425,19.637,21.992
			v9.426c0,14.924,1.571,17.279,11.782,17.279v2.356h-33.775v-3.142c9.426,0,11.782-2.356,11.782-17.279v-8.641
			c0-9.426-3.142-15.709-12.567-15.709c-7.854,0-17.28,6.283-17.28,14.924v9.426c0,14.923,1.571,17.279,10.211,17.279v3.142h-32.989
			v-2.356H644.858z"/>
		<path fill="#FFFFFF" d="M760.32,754.036c0-8.64-3.143-15.709-10.996-15.709c-7.069,0-10.997,6.284-10.997,15.709
			c0,8.641,3.928,14.924,10.997,14.924C757.178,769.745,760.32,762.677,760.32,754.036 M733.614,797.236l2.356,1.571
			c-12.567,13.353,2.356,20.422,14.139,20.422c9.426,0,18.851-4.713,18.851-10.997c0-7.068-7.069-9.425-19.636-10.211
			c-12.567-1.57-21.208-4.713-21.208-14.138c0-5.498,4.713-9.426,12.567-11.782c-7.069-3.927-12.567-10.211-12.567-18.065
			c0-10.996,10.211-20.422,21.993-20.422c6.283,0,10.996,2.356,15.709,5.498c2.356-3.142,7.854-5.498,10.996-5.498
			c10.211,0,10.996,11.782,4.713,12.567s-3.142-6.283-8.64-6.283c-1.571,0-3.142,0.785-4.713,2.355
			c2.356,3.143,4.713,7.855,4.713,11.782c0,10.996-9.426,18.851-19.637,20.422c-6.283,0.785-16.494,2.356-16.494,6.284
			c0,3.927,8.64,5.498,13.353,5.498c20.422,1.57,27.49,10.211,27.49,19.636c0,12.567-11.781,19.637-26.705,19.637
			C724.975,825.513,715.549,806.662,733.614,797.236"/>
		<path fill="#FFFFFF" d="M825.513,820.8c0-5.498,7.069-5.498,10.996-17.28l7.069-18.851l-17.28-36.916
			c-3.142-6.284-5.498-8.641-10.211-8.641v-3.142h26.706v3.142c-6.284,0-7.854,1.571-4.713,8.641l10.996,23.563l9.426-23.563
			c2.356-7.069,1.57-8.641-4.713-8.641v-3.142h21.207v3.142c-4.713,0-7.854,2.356-10.211,8.641l-29.062,72.262
			c-1.571,3.142-3.142,5.498-5.498,5.498C828.654,825.513,825.513,824.728,825.513,820.8"/>
		<path fill="#FFFFFF" d="M929.192,761.105c0-11.782-5.498-21.207-18.065-21.207c-12.566,0-18.065,9.425-18.065,21.207
			s5.499,21.207,18.065,21.207C923.694,782.312,929.192,772.888,929.192,761.105 M881.28,761.105
			c0-14.924,13.353-26.705,29.847-26.705c16.495,0,29.848,11.781,29.848,26.705s-13.353,27.491-29.848,27.491
			C894.633,788.597,881.28,776.029,881.28,761.105"/>
		<path fill="#FFFFFF" d="M962.182,765.818v-9.426c0-14.924-1.57-17.28-11.781-17.28v-3.142h21.992v29.062
			c0,9.425,3.143,15.709,10.996,15.709c5.499,0,15.709-5.498,15.709-14.924v-9.426c0-14.924-1.57-17.28-11.781-17.28v-3.142h22.778
			v27.491c0,14.924,1.571,17.28,11.782,17.28v3.142l-19.637,3.927c-0.785-1.57-1.571-7.068-2.356-9.425
			c-3.928,3.927-10.996,9.425-19.637,9.425C966.895,788.597,962.182,778.386,962.182,765.818"/>
		<path fill="#FFFFFF" d="M1030.517,783.098c10.211,0,11.781-2.355,11.781-17.279v-7.069c0-14.924-1.57-17.28-11.781-17.28v-3.142
			l19.636-3.927c0.786,1.57,2.356,7.854,2.356,10.996c3.142-6.284,9.426-10.996,15.71-10.996c7.854,0,11.781,5.498,11.781,9.425
			c0,3.142-1.571,7.069-6.283,7.069c-3.143,0-5.498-2.356-5.498-5.498s-1.571-4.713-4.713-4.713c-3.143,0-11.782,5.498-11.782,17.28
			v7.854c0,14.924,1.571,17.279,11.782,17.279v2.356h-33.775v-2.356H1030.517z"/>
		<path fill="#FFFFFF" d="M1132.625,713.192c0-3.927,3.143-6.283,6.284-6.283c3.927,0,6.283,3.142,6.283,6.283
			c0,3.928-3.142,6.284-6.283,6.284S1132.625,716.335,1132.625,713.192 M1105.135,812.945c0-2.356,1.57-3.927,4.713-3.927
			c7.854,0,3.142,11.781,14.138,11.781c5.498,0,10.211-4.713,10.211-22.778v-39.272c0-14.924-1.57-17.28-11.781-17.28v-3.142
			l21.992-3.927v62.836c0,19.637-10.211,28.276-21.992,28.276C1111.418,825.513,1105.135,817.658,1105.135,812.945"/>
		<path fill="#FFFFFF" d="M1211.956,761.105c0-11.782-5.498-21.207-18.065-21.207s-18.065,9.425-18.065,21.207
			s5.498,21.207,18.065,21.207C1205.673,782.312,1211.956,772.888,1211.956,761.105 M1163.258,761.105
			c0-14.924,13.354-26.705,29.848-26.705s29.848,11.781,29.848,26.705s-13.354,27.491-29.848,27.491
			C1177.396,788.597,1163.258,776.029,1163.258,761.105"/>
		<path fill="#FFFFFF" d="M1244.945,765.818v-9.426c0-14.924-1.57-17.28-11.781-17.28v-3.142h21.992v29.062
			c0,9.425,3.142,15.709,10.996,15.709c5.498,0,15.709-5.498,15.709-14.924v-9.426c0-14.924-1.57-17.28-11.781-17.28v-3.142h22.778
			v27.491c0,14.924,1.57,17.28,11.781,17.28v3.142l-19.636,3.927c-0.786-1.57-1.571-7.068-2.356-9.425
			c-3.928,3.927-10.997,9.425-19.637,9.425C1249.658,788.597,1244.945,778.386,1244.945,765.818"/>
		<path fill="#FFFFFF" d="M1312.494,783.098c10.211,0,11.782-2.355,11.782-17.279v-7.069c0-14.924-1.571-17.28-11.782-17.28v-3.142
			l19.637-3.927c0.785,1.57,2.356,7.854,2.356,10.996c3.142-6.284,9.426-10.996,15.709-10.996c7.854,0,11.782,5.498,11.782,9.425
			c0,3.142-1.571,7.069-6.284,7.069c-3.142,0-5.498-2.356-5.498-5.498s-1.57-4.713-4.713-4.713c-3.142,0-11.781,5.498-11.781,17.28
			v7.854c0,14.924,1.57,17.279,11.781,17.279v2.356h-33.774v-2.356H1312.494z"/>
		<path fill="#FFFFFF" d="M1370.618,783.098c10.211,0,11.782-2.355,11.782-17.279v-7.069c0-14.924-1.571-17.28-11.782-17.28v-3.142
			l19.637-3.927c0.785,1.57,2.356,7.854,2.356,10.996c3.927-4.713,10.996-10.996,20.422-10.996c13.353,0,19.636,9.425,19.636,21.992
			v9.426c0,14.924,1.571,17.279,11.782,17.279v2.356h-33.774v-3.142c9.425,0,11.781-2.356,11.781-17.279v-8.641
			c0-9.426-3.142-15.709-12.567-15.709c-7.854,0-17.279,6.283-17.279,14.924v9.426c0,14.923,1.57,17.279,10.211,17.279v3.142
			h-32.989v-2.356H1370.618z"/>
		<path fill="#FFFFFF" d="M1491.578,751.68c1.571-4.713-0.785-11.781-10.996-11.781c-6.284,0-11.782,4.713-14.139,11.781H1491.578z
			 M1453.877,761.105c0-15.709,13.353-26.705,27.49-26.705c13.353,0,23.563,10.996,20.422,23.563h-36.131
			c-1.57,14.138,3.928,24.349,19.637,24.349c4.713,0,11.781-3.142,16.494-7.069l2.356,3.143c-5.498,5.498-14.138,9.425-22.778,9.425
			C1464.873,788.597,1453.877,776.029,1453.877,761.105"/>
		<path fill="#FFFFFF" d="M1518.283,820.8c0-5.498,7.069-5.498,10.997-17.28l7.068-18.851l-17.279-36.916
			c-3.142-6.284-5.498-8.641-10.211-8.641v-3.142h26.705v3.142c-6.283,0-7.854,1.571-4.713,8.641l10.996,23.563l9.426-23.563
			c2.356-7.069,1.571-8.641-4.713-8.641v-3.142h21.207v3.142c-4.712,0-7.854,2.356-10.211,8.641l-29.062,72.262
			c-1.57,3.142-3.142,5.498-5.498,5.498S1518.283,824.728,1518.283,820.8"/>
	</g>
	<g>
		<path fill="#FFFFFF" d="M411.578,930.764c0-29.062-3.142-33.774-27.491-33.774v-6.284h66.763v6.284
			c-24.349,0-28.276,4.713-28.276,33.774v140.597h-7.068L296.902,923.694v101.324c0,29.062,3.927,34.56,28.276,34.56v6.283h-66.764
			v-6.283c24.349,0,27.491-4.713,27.491-34.56v-94.255c0-29.062-3.142-33.774-27.491-33.774v-6.284h40.844l112.32,139.025V930.764z"
			/>
		<path fill="#FFFFFF" d="M527.04,1057.222c20.422,0,35.346-11.781,35.346-36.916v-41.629c0-29.062-3.142-33.775-22.778-33.775
			v-5.498h59.694v5.498c-19.637,0-22.778,4.713-22.778,33.775v39.272c0,34.56-23.563,51.84-52.625,51.84
			c-28.276,0-51.84-18.065-51.84-51.84v-39.272c0-29.062-3.143-33.775-22.778-33.775v-5.498h66.764v5.498
			c-19.637,0-22.778,4.713-22.778,33.775v41.629C492.48,1045.44,506.618,1057.222,527.04,1057.222"/>
		<path fill="#FFFFFF" d="M714.764,939.403c0-21.207-11.782-38.487-36.916-38.487h-25.92v76.975h25.92
			C702.981,978.677,714.764,961.396,714.764,939.403 M740.684,939.403c0,27.491-21.992,48.698-62.836,48.698h-25.92v36.131
			c0,29.062,3.142,34.561,27.49,34.561v6.283h-78.545v-6.283c24.349,0,27.49-4.713,27.49-34.561v-93.469
			c0-29.062-3.142-33.774-27.49-33.774v-6.284h76.975C718.691,890.705,740.684,912.698,740.684,939.403"/>
		<path fill="#FFFFFF" d="M794.88,968.466l-19.636,44.771h38.486L794.88,968.466z M765.033,1037.586
			c-7.069,17.279-7.069,21.992,15.709,21.992v6.283H725.76v-6.283c18.065,0,20.422-3.142,29.848-25.135l43.2-99.752h3.927
			l43.2,99.752c9.426,21.993,13.353,25.135,28.276,25.135v6.283h-65.192v-6.283c21.207,0,22.778-4.713,15.709-21.992l-5.498-13.354
			h-47.913L765.033,1037.586z"/>
		<path fill="#FFFFFF" d="M923.694,950.4c-26.705,0-29.062,4.712-32.989,18.851l-1.57,5.498h-5.498l2.356-36.131h130.385
			l2.356,36.131h-5.498l-1.57-5.498c-3.143-13.353-5.498-18.851-32.989-18.851h-16.495v75.403c0,29.062,3.928,34.56,23.564,34.56
			v5.498h-67.55v-5.498c19.637,0,23.563-4.713,23.563-34.56V950.4H923.694z"/>
		<path fill="#FFFFFF" d="M1156.189,993.6v-14.138c0-29.062-3.143-33.774-22.778-33.774v-5.498h66.764v5.498
			c-19.637,0-22.778,4.713-22.778,33.774v47.127c0,29.062,3.928,34.561,22.778,34.561v5.498h-66.764v-5.498
			c19.636,0,22.778-4.713,22.778-34.561v-21.992h-65.979v21.992c0,29.062,3.142,34.561,22.778,34.561v5.498h-66.764v-5.498
			c19.636,0,22.778-4.713,22.778-34.561v-47.127c0-29.062-3.143-33.774-22.778-33.774v-5.498h66.764v5.498
			c-19.637,0-22.778,4.713-22.778,33.774V993.6H1156.189z"/>
		<path fill="#FFFFFF" d="M1220.597,1065.861v-3.142c10.996,0,12.567-3.142,12.567-18.851v-25.92
			c0-16.495-1.571-18.852-12.567-18.852v-3.142h36.916v3.142c-10.996,0-12.567,2.356-12.567,18.852v25.92
			c0,16.494,1.571,18.851,12.567,18.851v3.142H1220.597z"/>
		<path fill="#FFFFFF" d="M1273.222,998.312v-3.142h19.637l43.2,51.055v-29.062c0-16.495-1.571-18.852-12.567-18.852v-3.142h31.418
			v3.142c-10.996,0-12.567,2.356-12.567,18.852v51.054h-3.142l-47.128-56.553v32.204c0,16.494,1.571,18.851,12.567,18.851v3.142
			h-31.418v-3.142c10.997,0,12.567-3.142,12.567-18.851v-25.92C1286.574,1001.454,1284.219,998.312,1273.222,998.312"/>
		<path fill="#FFFFFF" d="M1420.887,1065.861c-0.785-3.142-1.57-7.068-3.142-7.854c-4.712,6.284-13.353,10.997-21.207,10.997
			c-20.422,0-36.916-17.28-36.916-37.702s16.494-37.702,36.916-37.702c7.854,0,16.495,4.713,21.207,10.997
			c0.786-1.571,2.356-5.499,3.142-7.854h3.143v28.276h-3.143c-3.142-14.924-11.781-24.35-24.349-24.35
			c-18.065,0-23.563,18.065-23.563,31.418c0,14.139,5.498,31.419,23.563,31.419c12.567,0,21.207-9.426,24.349-24.35h3.143v28.276
			h-3.143V1065.861z"/>
		<path fill="#FFFFFF" d="M1452.306,1066.647c-4.713,0-8.641-3.928-8.641-8.64c0-4.713,3.928-8.641,8.641-8.641
			s9.425,3.928,9.425,8.641C1461.73,1062.72,1457.804,1066.647,1452.306,1066.647"/>
	</g>
</g>
</svg>
