<?xml version="1.0" encoding="utf-8"?>
<!-- Generator: Adobe Illustrator 15.0.0, SVG Export Plug-In . SVG Version: 6.00 Build 0)  -->
<!DOCTYPE svg PUBLIC "-//W3C//DTD SVG 1.1//EN" "http://www.w3.org/Graphics/SVG/1.1/DTD/svg11.dtd">
<svg version="1.1" id="Layer_1" xmlns="http://www.w3.org/2000/svg" xmlns:xlink="http://www.w3.org/1999/xlink" x="0px" y="0px"
	 width="1728px" height="1296px" viewBox="0 0 1728 1296" enable-background="new 0 0 1728 1296" xml:space="preserve">
<g>
	<path fill="#FFFFFF" d="M325.77,1086.25c0,9.25-1,33-10.75,44.25c-9.5,11.5-19.5,13-26.25,13.75c-6,0.5-28.25,0.25-36-0.75
		c-7.75-0.75-21.25-6.25-33-15.5c-11-9-23.5-20.5-33-33c-9.75-13-13.75-25.75-14.5-34c-0.75-8-1.25-20.25-1.25-21.5
		c0-1.5,0.75-1.25,2-1.25s24.25-0.25,27.75-0.25c3.75,0,1.25-0.75,0.25-1.5c-0.75-0.75-3-2.5-6.5-6.25c-3.75-3.75-5.75-6-11.5-14.25
		c-6-8-8.5-15.5-10.5-25c-2-9-2.75-18.5,0.25-30s9-18.5,15.25-25c6.5-7,13.75-10.5,25-13c10.75-2.75,21.75-1,30.5,1.5
		c9.25,2,16.75,8.25,25,14.25c8.5,6,11.5,9,20,17c8.75,7.75,18.75,19.25,25.5,28c6.75,8.5,9.75,19,10.5,24.25
		c1.25,6.5,0.75,14.5,0.75,17c0,2.25-1,3.75-2.25,4.25c-1.5,0.75-9,0.75-12.5,0.75c-3.75,0-15.5-0.5-16.25-0.5
		c-0.75-0.25-0.75,0,0,0.5c0.75,0.75,4.25,4.5,12.25,14.25c7.75,9.5,13.25,18,15.75,22.5C324.52,1071,325.77,1077.25,325.77,1086.25
		 M274.02,1025.5c-6.5-9-17.75-20.75-36.25-24c-18-3.25-24-6-28-13.75s-1.5-17.75,3.75-22.5c5-4.75,15.5-8,24.75-2
		c9.25,5.5,10.5,21.75,10.5,22.5c0,1,0,1.25,1.75,1.25c2,0,26.75,1,28,1s1.75,0.25,1.75-1.5s0.5-9.5-1.75-19
		c-2.5-9.25-6-19.75-17.5-28.75c-11.5-9.25-23.25-12.75-37.25-12.75c-13.75,0-28.25,8.5-35.5,16.75c-7,8.5-13.5,19-13.25,31.5
		c0.5,12.5,3.75,27.75,12.75,38c8.75,10.5,18.25,14.25,26.25,16.25s18.75,3.25,23.5,6c5,3,11.5,7,11.75,18.5
		c0.5,11.5-8.25,19.75-20.25,19c-11.75-0.5-17.75-8-19.5-14.25c-1.75-6-2-11.75-2-13c0-1-0.5-1-1.75-1s-27.25,0.25-28.5,0.25
		c-1.5,0-1.5,0.25-1.5,1c0,1.25,0.75,13,3.75,22.25c3.75,8.75,8,19.25,21.25,28.5c13.5,9,23.5,9.5,33.5,9
		c9.5-0.5,23.75-3.25,35.5-17.5c11.5-14,11.5-25.5,11.75-34.75S279.77,1034.25,274.02,1025.5"/>
	<path fill="#FFFFFF" d="M487.019,1142.75c-0.25,1.25-0.5,2-1.75,2.25c-0.75,0.25-13.75,0.75-21,0.75s-20.75-0.25-21.5-0.25
		s-1.5-0.25-2.5-0.75c-1-1-20.25-17.5-21.25-18.25c-0.75-0.5-1.5,0-1.5,0.75c-0.25,1.25-0.25,15.5-0.25,16.25s-0.25,2-1.25,2.25
		c-1.25,0-38.25,0.5-40.75,0.5c-2.75-0.25-3.5-1.5-6-3.5c-2.25-1.5-31.75-32.5-33-33.75c-1.25-1-1-1.25-1-4.25
		c0-2.75-0.5-52.25-0.5-73c-0.25-20.25,1.25-100,1.25-102.5c0.25-1.75,0.25-2.25,3-2.75s34.25,0,37,0c2.5,0,4.75,0.5,7.25,2.25
		c2.25,1.5,18.75,16.5,21,18.25c1.75,1.5,1.25,1,1.25-1s0.25-14.25,0-16.75c0-3,0.5-2.75,2.75-2.75c2,0,36,0,38.75-0.25
		c2.75,0,3.75,0.25,6.75,2.75c3,2.25,29,26.75,31,29c2.25,2,1.75,3.75,1.75,6.25c0,2.75,0.75,64,0.75,85.5
		C487.269,1071.5,487.269,1141.5,487.019,1142.75 M441.769,1101.75c0.25-2.25-0.5-167.5-0.25-169.25c0.25-2-0.75-1.75-2.75-1.75
		c-1.75,0-24.75,0.25-26.25,0.25s-2.75-0.25-2.75,2.5c0.25,2.25-0.25,62-0.25,64.5c0,2.75-0.25,3-2.75,3.25
		c-2,0.25-30.75,0.5-33,0.25c-1.75-0.25-2.75-0.5-3-3.75c0-3.25-0.75-63.5-0.5-65.25c0.25-2-0.25-2-2-2h-26.5c-1.25,0-2,0-2,1v83
		c-0.25,43.25-0.25,87-0.25,88c0.25,2-0.25,3,1.75,3h28.75c1.5,0,1.5-0.5,1.5-1.5c0-1.5-0.25-63.75,0-66c0.5-2.25,0.5-2.5,2-2.5
		c2-0.25,32.75-0.75,34.5-0.75c1.5,0,1.75,0.25,1.75,2.25c0,1.5,0.75,62.5,0.75,64.75c0.25,2.75,0.75,3.5,2.5,3.5
		c1.5,0,24.25-0.25,26.5-0.25C441.769,1104.75,441.769,1104,441.769,1101.75"/>
	<path fill="#FFFFFF" d="M650.518,998.5c-0.25,1.75-0.25,2-1.75,2.25c-2,0-54.25-0.5-55.5-0.75c-1.75,0-1.75,0-1,1
		c1,1.25,21.25,29,21.75,29.75c0.75,1,0.75,1.25,0.75,2.25c0,1.25,0.75,28.25,0.75,29.5c0,1,0,1.5-0.5,2c-0.5,0.25-1,0.5-0.25,1.5
		c0.75,0.75,33,32.5,34,33.75c0.75,1.25,1,1.5,1,2.75c0.25,1,0.25,34.75,0.25,37s-0.5,2.5-2.25,2.5c-2,0-106.25,1-107.5,1
		s-1.5-0.25-2.5-1s-34-31.5-34.75-32.25c-0.5-0.75-2-1.25-2-3.5s2-174.5,1.75-177.25c-0.25-1.75,0.5-2.25,2.75-2.5
		c2-0.5,106.5,0,108.25,0c1.5,0,2,0.25,3.25,1s30.75,26.75,32.25,28.25s1,1.75,1,3.5C650.018,960.75,650.518,996.5,650.518,998.5
		 M607.268,932.75c0-0.75,0.25-1.5-1.25-1.5c-1.25-0.25-95.75-0.75-97-0.75c-1.5,0-2,0.25-2,2c0,2-2.75,170.5-2.25,171.75
		c0,1.25,0,1.25,1.25,1.25c1.25-0.25,99-1,101-1c1.5,0,1.25-0.75,1-1.75c-0.25-1.25,0-29,0-30.25s-0.25-1.5-1.5-1.5
		c-1.5,0.25-64.25,0.25-65.75,0.25c-1.25-0.25-1.5-0.75-1.5-2c-0.25-1.5,0-32.75,0-34c-0.25-1,0.5-1.75,1.75-2
		c1.75-0.25,33-0.25,34.5-0.25c1.25,0,1.25-0.25,1.25-1.25s0.5-29.25,0.5-30.25c0.25-1.25,0.25-1-0.5-1s-35-0.5-36.25-0.5
		c-1,0-1.25-0.5-1.25-1.5s-0.25-31.5-0.25-33.25c0-0.5,0.25-0.75,1.5-1c1.25,0,62.5-0.5,64.5-0.75c2.25-0.5,2.25-1,2.25-2.25
		C607.518,960,607.518,933.5,607.268,932.75"/>
	<path fill="#FFFFFF" d="M811.016,1104.5c0,2-0.75,31-0.75,34.5c0,4-1.25,3.75-3.5,4.25c-2.75,0.25-103.25,0-105,0
		c-2,0-2.5-0.25-3.5-1c-1-1-8.25-8.25-13.5-14.25c-5.5-5.75-21-19.75-21.75-20.75c-1-1-1.25-1.75-1.25-3.5
		c0-1.25,0.5-58.5,0.75-88.25c0.25-30,1.25-85.5,1.25-86.75c0-2,1-2.25,2.75-2.5c1.75,0,38.25-1,39.5-1s2.25-0.5,3.75,1.25
		c1.25,1.5,34.5,34.75,35.75,36.25c1.25,1.75,1.75,2,1.75,4.5c0.25,2.25-0.25,94,0,97.5c0,3.25,1.25,2.75,3.25,2.75
		c1.75-0.25,16.25-0.5,18.5-0.5c2.5,0,2.75,0.25,4,1.25c1,1.25,35.25,31.5,36.75,32.75
		C811.266,1102.5,811.016,1102.5,811.016,1104.5 M769.266,1072.25c-0.75,0-63,0.25-64.75,0.25c-2,0-2.5-0.5-2.5-1.75
		s-0.5-41.75-0.75-48.25v-91.25c0-0.75-0.25-1-1.5-1c-1,0-29.25,0-30.5,0.25c-1.25,0-1,0.5-1,1c0,1-0.5,51.5-0.75,60.5
		c0,9-0.75,111-0.75,112c0,1.25-0.25,1.5,1.25,1.5c1.25,0,99.75-0.25,100.25-0.25c0.75,0,1-0.25,1-1.25c0-0.75,0.5-30.25,0.5-31
		C769.766,1072,769.766,1072.25,769.266,1072.25"/>
	<path fill="#FFFFFF" d="M941.515,1006.25c0,1.25-0.5,2.25-1.5,2.25s-26,0.25-27,0.25c-1.5,0-2,0.5-2,2c0,1.25-1,126.75-1,129.25
		c0.25,2-0.75,2.25-2.75,2.5c-2,0-44.75,0-46.25-0.25c-1.75,0-4.25-2.5-5.5-3.75c-1.25-1-28.5-27.25-29.25-28.5
		c-0.75-0.75-1-1.75-1-3.5c0.25-1.5-0.25-98-0.25-99.25c0-1.5-0.25-1.75-1.5-2.75c-0.75-0.75-34.75-32.25-35.75-33.5
		c-1.25-1-1.25-2.25-1.25-3c-0.25-0.75,0-36.5,0-38c0-3.75,1.25-4.25,3.25-4.5c1.75,0,115.75,1.25,117.5,1.25
		c1.5,0,3.25,0.5,4.25,1.5c1.25,1,28.5,27,29.25,28c0.75,0.75,1.25,1.75,1.25,3.5C941.515,961.5,941.515,1005,941.515,1006.25
		 M900.765,961.5c0-0.75-0.5-9.75-0.5-15.75c0.5-6-0.25-13.5-0.25-14.5s-0.5-1-1.25-1c-0.5,0.25-37.5,0-55.75,0
		c-18.25,0.25-49.25,0.25-50.5,0c-1.5-0.25-1.5,0.5-1.75,1.25c-0.25,1.25,0.5,28.75,0.5,29.75c0,0.75,0.25,0.75,1,0.75
		s35.75,0.5,36.75,0.75s1.5,1,1.5,1.75c0,1,1.25,138.75,1.25,139.5c0,1,0.25,1,0.5,1c0.5,0,9.25,0.25,15,0.25
		c5.5,0,14-0.25,14.5-0.25s0.75,0,0.5-1.25c0-0.75-0.5-137.5-0.25-138.75c0-1.25,1-2,2.5-2c1.75,0,12.25-0.25,19-0.25
		c6.5,0,15.5-0.25,16.25-0.25C900.765,962.5,900.765,962.5,900.765,961.5"/>
	<path fill="#FFFFFF" d="M1102.765,998.5c-0.25,1.75-0.25,2-1.75,2.25c-2,0-54.25-0.5-55.5-0.75c-1.75,0-1.75,0-1,1
		c1,1.25,21.25,29,21.75,29.75c0.75,1,0.75,1.25,0.75,2.25c0,1.25,0.75,28.25,0.75,29.5c0,1,0,1.5-0.5,2c-0.5,0.25-1,0.5-0.25,1.5
		c0.75,0.75,33,32.5,34,33.75c0.75,1.25,1,1.5,1,2.75c0.25,1,0.25,34.75,0.25,37s-0.5,2.5-2.25,2.5c-2,0-106.25,1-107.5,1
		s-1.5-0.25-2.5-1s-34-31.5-34.75-32.25c-0.5-0.75-2-1.25-2-3.5s2-174.5,1.75-177.25c-0.25-1.75,0.5-2.25,2.75-2.5
		c2-0.5,106.5,0,108.25,0c1.5,0,2,0.25,3.25,1s30.75,26.75,32.25,28.25s1,1.75,1,3.5C1102.265,960.75,1102.765,996.5,1102.765,998.5
		 M1059.515,932.75c0-0.75,0.25-1.5-1.25-1.5c-1.25-0.25-95.75-0.75-97-0.75c-1.5,0-2,0.25-2,2c0,2-2.75,170.5-2.25,171.75
		c0,1.25,0,1.25,1.25,1.25c1.25-0.25,99-1,101-1c1.5,0,1.25-0.75,1-1.75c-0.25-1.25,0-29,0-30.25s-0.25-1.5-1.5-1.5
		c-1.5,0.25-64.25,0.25-65.75,0.25c-1.25-0.25-1.5-0.75-1.5-2c-0.25-1.5,0-32.75,0-34c-0.25-1,0.5-1.75,1.75-2
		c1.75-0.25,33-0.25,34.5-0.25c1.25,0,1.25-0.25,1.25-1.25s0.5-29.25,0.5-30.25c0.25-1.25,0.25-1-0.5-1s-35-0.5-36.25-0.5
		c-1,0-1.25-0.5-1.25-1.5s-0.25-31.5-0.25-33.25c0-0.5,0.25-0.75,1.5-1c1.25,0,62.5-0.5,64.5-0.75c2.25-0.5,2.25-1,2.25-2.25
		C1059.765,960,1059.765,933.5,1059.515,932.75"/>
	<path fill="#FFFFFF" d="M1268.514,1130c-0.25,1.25,0,1.75-1.25,3.75c-1.25,1.75-5,6.25-9.75,7.75c-4.25,1.75-15,1-18,1
		c-3.25,0-6.25,0-10.5-2c-4.5-2-31.5-23-33.75-25.25c-2.25-2-3.25-1-3.25,0.75c0,2.25-1,22.75-0.25,24.25c0,1.5-1.5,2-3.5,2.25
		c-2,0-34.5-0.25-35.5-0.25c-1.25,0-1.75-0.25-2.5-1s-33-31.5-34-32.5s-2.25-2.75-2-5.25c0-2.25-0.25-172.25,0-174.25
		c0-2.75,1.5-2.75,5.5-3.25c4-0.25,42.75,0.25,57.5,1.75c15,1.25,27.5,7,38.25,14.75c10.5,7.75,29,27.75,34,34.25
		c5.5,6.75,11.5,13,15.25,25c4.25,12.75,4.25,22.5,2.5,30.5c-1.75,8.25-9,17.5-10.25,18.75c-1,1.25-1,1.75-0.25,2.75
		s4.5,4,8.5,11.25c3.5,7.25,2.5,17.25,2.75,29C1268.264,1105.25,1268.514,1128.75,1268.514,1130 M1235.014,1082
		c-0.75-0.5-7.5-2.25-10.25-7.5c-2.75-4.75-2.75-6.5-3-14.5c-0.25-7.75-0.5-18.75-3.75-25.5c-3-6.5-7.75-12-8.5-13.25
		c-1-1.25-0.5-1.75,0-2.5c0.75-1,7-6.25,10.5-19.5c3.75-13.25,2-26-2.5-34.5c-4.75-8.5-11.75-20.5-25.25-27.25
		c-14-6.75-26.5-7-34.5-7.25c-8-0.5-36.25-1-37.75-1c-1.25,0.5-1,0.75-1.25,1.5c-0.25,1.5,0.5,57,0.25,88.25c-0.5,30.5,0,82,0,83.5
		c0,1.25,0,2.5,1.5,2.5h28.5c1.25-0.25,2-0.25,1.75-2c0-1.5,0.25-64,0.25-66s0.75-2,2-2.25c1-0.25,20.5-1.75,27,2.5
		c6.25,4.75,9.75,8.75,9.75,20.25c0.25,11.5,0,31.25,6.25,38.25c5.75,7.25,10.5,9,16.5,8.75c6.25-0.25,11.25-0.25,17-7.25
		c5.5-7.25,5.75-11,6.25-12.75C1236.264,1082.5,1236.264,1082.5,1235.014,1082 M1152.014,963.5c1-0.25,6.5-0.5,13-0.5s10,1,13,2.25
		c2.75,1.25,13,6.75,12.25,19c-0.75,12.5-7.5,15.25-13.25,17.25c-6,2.25-20.25,1.25-23.25,1c-2.75,0-3-2-3-3.5s-0.75-32-0.5-33.75
		C1150.264,964,1151.014,963.75,1152.014,963.5"/>
	<path fill="#FFFFFF" d="M1429.261,998.5c-0.25,1.75-0.25,2-1.75,2.25c-2,0-54.25-0.5-55.5-0.75c-1.75,0-1.75,0-1,1
		c1,1.25,21.25,29,21.75,29.75c0.75,1,0.75,1.25,0.75,2.25c0,1.25,0.75,28.25,0.75,29.5c0,1,0,1.5-0.5,2c-0.5,0.25-1,0.5-0.25,1.5
		c0.75,0.75,33,32.5,34,33.75c0.75,1.25,1,1.5,1,2.75c0.25,1,0.25,34.75,0.25,37s-0.5,2.5-2.25,2.5c-2,0-106.25,1-107.5,1
		s-1.5-0.25-2.5-1s-34-31.5-34.75-32.25c-0.5-0.75-2-1.25-2-3.5s2-174.5,1.75-177.25c-0.25-1.75,0.5-2.25,2.75-2.5
		c2-0.5,106.5,0,108.25,0c1.5,0,2,0.25,3.25,1s30.75,26.75,32.25,28.25s1,1.75,1,3.5C1428.761,960.75,1429.261,996.5,1429.261,998.5
		 M1386.011,932.75c0-0.75,0.25-1.5-1.25-1.5c-1.25-0.25-95.75-0.75-97-0.75c-1.5,0-2,0.25-2,2c0,2-2.75,170.5-2.25,171.75
		c0,1.25,0,1.25,1.25,1.25c1.25-0.25,99-1,101-1c1.5,0,1.25-0.75,1-1.75c-0.25-1.25,0-29,0-30.25s-0.25-1.5-1.5-1.5
		c-1.5,0.25-64.25,0.25-65.75,0.25c-1.25-0.25-1.5-0.75-1.5-2c-0.25-1.5,0-32.75,0-34c-0.25-1,0.5-1.75,1.75-2
		c1.75-0.25,33-0.25,34.5-0.25c1.25,0,1.25-0.25,1.25-1.25s0.5-29.25,0.5-30.25c0.25-1.25,0.25-1-0.5-1s-35-0.5-36.25-0.5
		c-1,0-1.25-0.5-1.25-1.5s-0.25-31.5-0.25-33.25c0-0.5,0.25-0.75,1.5-1c1.25,0,62.5-0.5,64.5-0.75c2.25-0.5,2.25-1,2.25-2.25
		C1386.261,960,1386.261,933.5,1386.011,932.75"/>
	<path fill="#FFFFFF" d="M1585.26,1108c-1,11-4,15.25-11,23c-6.75,8-14,10-22.5,11c-8.75,1-70.5,0.25-73.75,0
		c-3-0.25-2.75,0-4.75-1.5c-2.25-2-30.25-29.5-31.5-30.5c-1.25-1.25-1-1.5-1.25-3.75c0-2.5,0.25-45.25,0.25-66
		c0.25-21,1.25-109.75,1.5-112c0-1.5,0-1.75,2.75-2c2.5,0,39,0,48.75,0.25c9.25,0.25,15-0.25,25.75,5c11,4.75,22.25,15,28,20.25
		c6,5.25,13.5,12.75,20.5,22.25s12.75,20.25,14.75,25c2.25,4.75,2.5,7.25,3,15.25c0.25,7.75,0.25,37,0.25,52.5
		S1586.51,1097,1585.26,1108 M1543.76,976c-0.25-10.25-6.5-22.75-14.5-30.75c-7.75-8-19.25-12.75-27.25-13.5s-51.5-1-53.25-1
		s-2.5-0.5-2.5,0.5c0,0.75-1,58.5-1,67.5c0,9.5-0.25,103.5-0.5,104.5c0,1.25-0.25,1.25,0.5,1.75c1,0.25,29.25,0.5,43.75-0.5
		c14.5-0.75,20.75-0.5,30.75-6.5c10-6.25,14-12,17.75-19c3.75-6.75,5.25-12.5,5.75-18.5c0.25-6,0.25-16.5,0.5-29
		C1544.01,1019.25,1544.01,986.25,1543.76,976 M1477.26,964c0.5-0.25,3.75-0.75,7.5-1c4,0,6.25,0.25,9.25,0.5
		c2.75,0.25,8.5,1.5,13.5,6.25c4.75,5.25,5.25,10.5,5.75,14.5c0.5,4.25,0,20.75,0,33.75s-0.75,38-1.5,41.5c-0.5,3.75-2.5,6.25-5,9
		c-2.5,3-5,4-9,5c-3.75,1-17.5,0.5-19.25,0s-3-1.25-3-2s0.75-105,0.75-106S1476.76,964.25,1477.26,964"/>
</g>
<path fill="#FFFFFF" d="M204.175,183.635l-4.838-3.456l-4.147-4.146l-3.456-2.765l-3.456-4.147l-4.838-0.691l-4.838-2.073
	l-2.765-1.383l2.074,3.456l4.838,3.456l-0.691,3.456l-5.529-3.456l-0.691-1.382l-2.073,0.691L171,173.268l0.691,3.456l2.074,4.147
	l-4.147,4.146l-3.456-2.073l-1.382-9.676l1.382-8.985l2.073-4.147l4.838-2.073l4.838-0.691l2.764-2.073l1.382-4.838l-1.382-0.691
	l-2.073,4.838l-2.073,2.073l-4.838-2.073l-2.764-2.074l-2.074-2.765v-2.073l-1.382,0.691v-4.838l0.691-5.529l10.367,0.691h5.529
	l-1.382-5.529l-2.764-4.147l-4.838-2.073l-7.603-2.765l0.691-3.456l1.382-5.529v-2.765l2.765-4.146h4.838l4.146,2.764l2.765,3.456
	l2.765-4.146l9.676-2.073l6.912,2.073l4.838,2.073l8.985-2.073l10.367-2.073h143.757l2.073,0.691l-1.382,2.073l-0.691,1.382h0.691
	l7.603-4.146l7.603,0.691l4.838,2.765l0.691,2.073l-0.691,1.382l0.691,0.691l2.073,0.691l0.691,5.529v18.661l-2.073,4.838
	l-6.22,4.838l-4.838,4.838l5.529,4.838l5.529,4.147l2.073,0.691v11.059l-2.073,4.838l-3.456,2.765l-4.147-0.691v-4.838l1.382-2.073
	l-4.838,0.691l-6.22,3.456l-2.074,2.074l2.765,3.456l8.294,4.147l10.367,4.147v4.838l-0.691,8.293l-0.691,5.529l-4.147,4.838
	l-9.676,1.382h-24.881l-4.838-4.838v-4.838l4.838-4.838l2.765-7.603l-2.765-4.147l-3.456-0.691l-5.529,2.765l-3.456,4.838h-4.838
	l0.691,13.823l-4.146,5.529h-6.912l-1.382,2.765l-1.382-1.383l-4.838-9.676l-0.691-6.22l-4.147-2.073l-0.691-2.765v-0.691
	l-2.074,0.691l-2.073-0.691v-2.074l-2.073,0.691l-0.691,4.147l-3.456,6.911l1.382,5.529l2.073-0.691l1.382-4.838l4.147-2.073
	l1.382,6.22l-1.382,4.838l-2.765,3.456l-6.22,2.073l-5.529-3.456l-4.146-3.456l-4.838,1.382h-0.691v0.691h-4.147v-4.146
	l-4.147,4.146h-3.456l-3.456-7.603l-2.073-6.911l-1.382-6.912l1.382-4.147l5.529-0.691l4.838-1.382l4.838-0.691l3.456,0.691
	l2.073-0.691l3.456-4.147l3.456-0.691h2.764l-0.691-2.764l-4.147-4.147l-2.764,2.073v5.529l-2.074,3.456l-2.073,0.691l-0.691-2.765
	l-0.691-6.912l-3.456-3.456l-4.838,2.074l-5.529,4.146l-4.838,4.147l-8.294,2.073l-5.529,3.456l-1.382,4.147l-0.691-1.382
	l-2.073-2.765l0.691-3.456l6.912-3.456l4.147-2.765l-2.765-4.146l-4.147-0.691v-4.147l2.073-3.456l2.074-5.529l-2.765-4.838
	l-6.911-2.765l-2.074,2.074l2.074,0.691l3.456,2.074l1.382,2.764l-3.456,4.147l-5.529,4.838l-4.838,6.912l-6.22,2.765l-7.603-0.691
	l-4.838,2.765l-2.764,13.823v6.22l-3.456-1.382l-2.073-3.456l-0.691-8.294l-2.765-5.529L204.175,183.635z M392.165,872.701
	l-2.765,4.838v-3.456l-0.691-1.382v1.382l-3.456,6.911l-11.75,6.912l-11.749,2.073h-157.58l-11.75-0.691l-15.896-8.294
	l-8.294-11.749l-2.073-12.44l-0.691-15.896V787l0.691-16.589l-0.691-11.749v-95.377l0.691-22.808l-0.691-109.891l1.382-15.896
	l-1.382-42.851V368.86l2.765-15.896l3.456-8.985l-6.22-11.058v-14.514l2.765-7.603l4.838-3.456l4.838-1.383l8.984,1.383l6.912,3.456
	h5.529l4.838,6.911l1.382,5.529l-2.074,2.765l-4.146,3.456l2.764,2.765l8.294,2.073h2.765l-2.765-1.382l-2.074-2.764l-1.382-4.838
	l-0.691-2.764v-4.147l-4.147-9.676l-10.367-6.911l-15.896-1.382l-9.676-3.456l2.765-8.294v-2.765l-3.456-0.691l0.691-3.456
	l3.456-5.529l3.456-4.146l6.912-2.074v-3.456l-14.514-9.676v-10.367l12.441,1.382l0.691,5.529v3.456l6.22,3.456l3.456,4.147
	l2.074,0.691l2.073-2.765l2.765-4.147l-0.691-3.456l-4.838-10.367l0.691-9.676l4.146-7.603l-0.691-4.838l-2.073,0.691l-1.382-2.073
	l1.382-2.765l2.764-2.765l4.147-2.764l-1.382-6.912l-3.456-6.22l-1.382-2.073l4.147-2.765h4.838l2.765,6.912l8.985,8.984
	l0.691,3.456l-5.529,8.984l0.691,13.823l-0.691,9.676v11.058l8.985,11.058l5.529,1.382v-1.382l-2.073-3.456l1.382-9.676
	l0.691-12.441v-8.984l8.985-7.603h6.22l-6.22,7.603l-4.147,4.146l6.912-1.382l11.058-12.441l4.147-13.823l2.764-8.984l6.912-2.074
	l0.691,6.22l-4.838,9.676l-4.147,12.44l-9.676,10.367l-4.838,2.765v5.529l2.765,6.911l4.146-3.456l2.074-6.22l0.691,2.765
	l1.382,4.146l2.074,2.765l0.691-0.691l2.073,2.765l-1.382,4.838l-4.838,6.22v5.529l2.074,1.382l2.764-4.146l3.456-11.059
	l2.073-17.278l4.838-13.823l2.765-6.22l2.765-0.691l4.838,7.603l2.073,10.367l-2.764,2.765l-2.765-4.146l-3.456-0.691l1.382,2.765
	l2.074,6.911l2.765,6.912l5.529,2.073l1.382-1.382l2.073-5.529l5.529-4.838l8.985-2.073l9.676-6.911l8.985-6.912l11.058,8.985
	v35.939l-0.691,11.058l0.691,9.676v17.97l-1.382,17.278l1.382,13.131v80.172l-1.382,59.438l1.382,22.116v114.729l-2.073,11.75
	v15.205l2.073,17.278v85.01l0.691,20.734l4.838,8.984l6.22,2.766h24.19l14.514,0.69l9.676,4.147l8.984,12.441v60.82L392.165,872.701
	z M168.927,203.678l-2.765,2.765v-4.147l2.765-2.765V203.678z M179.985,204.369l-1.382-5.529l-3.456-4.838l-1.382-2.074h4.838
	l4.147,3.456l4.146,4.147l1.382,4.147l-2.764,2.765l-0.691,2.765l3.456,1.382l1.382,0.691l-4.146,2.765h-4.838l-2.073-4.838
	L179.985,204.369z M175.838,363.331l2.765,1.382l3.456,2.073v-3.456l2.765-0.691v-2.765l-4.838,0.691h-2.073l-2.074-2.764
	l-0.691,2.764L175.838,363.331z M178.603,226.485l-2.765-2.074l2.074-3.456L178.603,226.485z M179.985,329.465l4.838-2.073v-4.147
	l-2.765,1.382l-3.456,3.456l-2.765,4.147L179.985,329.465z M180.676,440.047l-2.764-2.073v2.073H180.676z M186.896,279.012
	l-6.22,4.147l-0.691,6.911v4.147l2.765-3.456l4.146-6.912V279.012z M193.808,831.232l-4.147-2.073l-1.382,2.765l-2.764,1.383
	l-4.838-2.074l1.382,2.074l5.529,1.382l4.838-0.691l4.147,2.073l0.691,2.074v-3.456L193.808,831.232z M183.441,346.052l1.382-2.765
	l-2.073,0.691L183.441,346.052z M184.823,180.179h2.073l4.838,2.074l2.764,5.529l-6.911,1.382l-4.147-5.529L184.823,180.179z
	 M186.896,850.584l-3.456-2.764v0.691l2.074,2.072l4.146,2.765h2.765v-1.382h-2.765L186.896,850.584z M186.896,456.634l-2.073,2.073
	l0.691,3.456l2.764-2.073L186.896,456.634z M189.661,273.482v-3.456l-2.765-0.691v2.073L189.661,273.482z M188.279,878.23h-1.382
	l1.382,2.073V878.23z M194.499,864.407l-4.146-2.765l-2.765,0.691l2.765,4.146l3.456,2.765h0.691V864.407z M199.337,149.769h-2.765
	l-4.838,3.456l-2.074,3.456l4.838,1.382l4.838-2.765V149.769z M190.353,346.743l3.456-0.691h5.529l-0.691-2.765l-6.22-1.382
	l-2.765,4.147v2.764L190.353,346.743z M190.353,531.277h2.073l-2.073-2.765V531.277z M194.499,138.02l2.765-1.382l3.456,1.382
	l0.691,1.382l4.147-1.382l1.382-4.147l-1.382,0.691l-3.456,1.382l-0.691-2.765v-5.529l-2.765-1.382l-4.838,1.382l-1.382,5.529
	L194.499,138.02z M201.411,294.908l-6.22-2.764l-1.382,0.691l4.838,2.765L201.411,294.908z M193.808,429.68l2.765,0.691v-2.073
	L193.808,429.68z M195.19,820.174l3.456,1.383l-1.382-2.073L195.19,820.174z M198.646,171.194l3.456,0.691l1.382-1.382l-1.382-2.073
	l-1.382-3.456l-2.073,2.074V171.194z M205.558,287.306l5.529-3.456l1.382-4.838l-2.073-2.765l0.691-2.765l-4.838-4.146l-4.838,0.691
	l2.765,5.529l2.765,4.838h-3.456l-4.146,0.691l1.382,4.838L205.558,287.306z M201.411,371.624l0.691,2.074l1.382-2.074H201.411z
	 M204.175,598.317l-2.074-0.691l-0.691,1.382l0.691,1.382L204.175,598.317z M204.175,666.049l1.382,0.691l0.691-2.765v-0.69
	l-0.691,0.69L204.175,666.049z M211.086,388.903l2.074-1.382h-4.147l-2.073,2.765L211.086,388.903z M211.086,827.777l-2.765-0.691
	v0.691l2.074,1.382L211.086,827.777z M209.013,139.402l1.382,2.073l6.911,4.147l4.838,4.838l-4.838,2.073l-4.146,2.074l0.691,8.985
	l-1.382,8.293l-2.073,4.147l2.765-2.765l4.838-6.22l6.22-2.074v4.147l-2.074,2.765h-2.073l-0.691,2.073l1.382,1.382l4.838-1.382
	l3.456-6.911l2.073-7.603l1.382-2.765l1.382,1.382h0.691v-3.456l-2.765-2.765l-2.074-6.912l2.765-8.293l1.382-3.456h-4.147
	l-6.911,1.382l-7.603,2.073L209.013,139.402z M215.233,122.123l-1.382-2.073l-0.691,0.691L215.233,122.123z M213.851,133.182
	l2.073-2.074h-2.764L213.851,133.182z M213.16,303.893l0.691,2.073l2.073-1.382L213.16,303.893z M215.233,654.3h-2.073l0.691,2.073
	l2.073-1.382L215.233,654.3z M234.585,311.495h-4.838l-4.838,2.073l-2.073,8.985l1.382,3.456l3.456-6.912l6.22-4.838h5.529
	l6.911,4.147l4.838,6.22l2.074,1.382l-0.691-5.529l-2.073-6.912l-2.765-4.838l-3.456-2.765l-1.382,0.691l0.691,4.147l-2.764,2.073
	L234.585,311.495z M226.983,379.227l-2.074,2.074l2.074,0.691V379.227z M243.57,358.493l2.074-4.838v-2.074l-4.147,3.456
	l-4.838,1.382l-5.529-0.691l-1.382-2.073l2.074-5.529v-2.073h-4.838l0.691,2.073l1.382,2.765l-1.382,2.073v2.074l2.073,1.382
	l6.22,3.456l4.838,3.456l2.073-0.691L243.57,358.493z M227.674,211.28l1.382-4.838l3.456,2.073l-0.691,4.838L227.674,211.28z
	 M236.659,204.369l-2.765-3.456l2.765-3.456l6.22,1.382l1.382,4.838l-1.382,2.073L236.659,204.369z M234.585,424.842l-0.691-2.073
	v0.691l0.691,2.074h2.073L234.585,424.842z M239.423,845.746l-2.765,4.147l-2.073,6.911l1.382-1.382l2.765-4.839L239.423,845.746z
	 M238.041,444.885l-1.382-0.691l-0.691-0.691v0.691l0.691,2.073h2.073L238.041,444.885z M236.659,292.834h4.838l2.073-2.765h-4.838
	L236.659,292.834z M249.791,443.503l-2.074,1.382l0.691,2.074l1.382-0.691V443.503z M256.702,135.946l-1.382-2.765l-2.765-1.382
	v2.765L256.702,135.946z M257.393,292.834l-2.764,4.147v2.765h2.764l2.074-5.529l-1.382-2.073l-0.691-3.456v-6.911l-0.691-2.765
	l-2.073,2.765l-2.074,3.456l0.691,2.765L257.393,292.834z M258.084,446.267l1.382,0.691v-3.456h-2.074L258.084,446.267z
	 M259.466,514.69h0.691l-0.691-0.691l-1.382-2.074h-0.691v2.074L259.466,514.69z M261.54,462.854v-2.073l-2.073,1.382
	L261.54,462.854z M262.231,792.529l-2.074,2.073h2.765L262.231,792.529z M268.451,388.211l-4.147,4.147l-2.073,4.838l0.691,2.765
	l2.073-2.073v-4.147l3.456-3.456l5.529-2.765l2.074-2.073h-2.765L268.451,388.211z M262.231,753.824l2.073,0.69v-2.073
	L262.231,753.824z M266.377,775.94l-1.382,2.073l4.147-0.691L266.377,775.94z M280.892,145.622l-2.074-2.073l-4.838,2.073
	l2.765,2.073L280.892,145.622z M273.98,435.209l2.074,1.382v-1.382H273.98z M275.362,798.749h0.691v-2.073h-2.074L275.362,798.749z
	 M276.745,336.376l-1.382-2.073l0.691,2.073H276.745z M276.745,303.893l1.382,0.691h2.073v-2.074l-2.073,1.382H276.745z
	 M276.745,688.857l1.382,0.69h2.765l2.073-2.073l-2.765-0.691L276.745,688.857z M278.127,808.425l-1.382,2.073l2.073-1.382
	l1.382-0.691H278.127z M287.112,421.386h-3.456l-2.765,3.456l2.073,2.765l2.765-2.765l2.073-3.456l0.691-0.691L287.112,421.386z
	 M288.494,234.779l-5.529-3.456l2.765-1.382l6.22,4.147L288.494,234.779z M285.039,599.009l-1.382,1.382l2.073,0.691
	L285.039,599.009z M294.023,202.295l-8.293,3.456l-0.691,2.765l6.911,0.691l4.838-4.838L294.023,202.295z M289.876,271.409
	l5.529,0.691h11.75l6.22,2.073h2.073l2.074-2.073l-1.382-0.691h-2.765l-6.22-6.22l-5.529,2.073l-6.22,2.074l-4.838-0.691
	l-3.456,0.691L289.876,271.409z M295.405,319.098l-1.382-1.382l-1.382,0.691l2.764,2.764V319.098z M295.405,261.733v-3.456
	l4.147-3.456l4.838-1.382l4.838-2.765l4.147-2.764l2.765-3.456l-3.456-2.765l-10.367,2.765l-5.529,6.911l-2.073,6.22
	L295.405,261.733z M298.861,194.693v-2.765l-2.074,2.074L298.861,194.693z M299.552,292.834v-2.073l-2.073,1.382L299.552,292.834z
	 M318.213,798.749v6.911l1.382,2.074l2.765-2.766l-0.691-6.22l-1.382-5.529l4.838-2.765l3.456-1.382L323.742,787l-6.22-1.383h-5.529
	l-6.22,2.765l-2.765,0.691l-1.382,1.382v0.691l1.382-0.691l3.456-2.073l6.911,2.765L318.213,798.749z M303.699,619.052l2.765,0.691
	l-4.147-2.074L303.699,619.052z M308.537,827.777l-2.765,2.073l-2.073,3.456l2.765-3.456L308.537,827.777z M315.448,170.503
	l-6.911-2.073l-2.765,2.765l2.765,0.691h4.838l2.765,4.838l4.147,4.147l8.984,4.838h6.912l5.529-3.456l4.838-5.529l1.382-2.765
	v-3.456l2.073-5.529l-1.382-2.764l-0.691,2.073l0.691,2.765l-2.073,2.073l-3.456,4.838l-5.529,2.765l-7.603,1.382l-7.603-2.765
	L315.448,170.503z M305.772,283.85l1.382-0.691l-1.382-1.382V283.85z M307.155,489.118l-0.691-2.073l-0.691,1.382v0.691l0.691,1.382
	L307.155,489.118z M310.61,502.25l-2.073-2.074l-1.382,0.691l2.073,2.073L310.61,502.25z M315.448,129.035l3.456-2.073l-3.456-2.074
	l-6.22-0.691l-0.691,2.765L315.448,129.035z M314.066,147.695l2.764-1.382l-3.456-0.691h-2.765L314.066,147.695z M314.066,139.402
	v1.382l1.382,2.073l2.765,2.765l-0.691-2.765L314.066,139.402z M315.448,285.923h2.074v-2.764h-2.074V285.923z M327.198,192.619
	l-1.382,1.383h4.147l2.765-2.074h-0.691L327.198,192.619z M341.712,822.248l-2.765-0.691v1.383L341.712,822.248z M344.476,122.123
	l-0.691-1.382v1.382l-2.073,2.074L344.476,122.123z M343.785,147.695l-2.073,0.691l2.764,3.456l5.529,2.765l2.765,0.691v-2.073
	l-2.765-3.456L343.785,147.695z M344.476,865.099l-1.382-1.383v1.383l1.382,1.382V865.099z M350.696,182.943h2.074v-2.073
	L350.696,182.943z M363.137,209.207l-4.838-0.691l-3.456,0.691v2.073l0.691-0.691l2.073-1.382h2.765l2.073,1.382h2.765
	L363.137,209.207z M363.137,871.318l-3.456,1.383l2.765,1.382h2.765l1.382-1.382L363.137,871.318z M365.21,166.356h4.147
	l0.691,4.838v2.764l4.147,2.074l2.765-2.074l3.456-4.838v-2.764l-5.529-2.074l-3.456-0.691h-6.22l-4.838,3.456l2.073,3.456
	L365.21,166.356z M362.446,140.784l2.073-2.074h-2.073l-0.691,0.691L362.446,140.784z M373.504,861.643l0.691,6.911l0.691,2.765
	l1.382-0.69l5.529-2.074l-6.912-4.146L373.504,861.643z"/>
<g>
	<path fill="#FFFFFF" d="M831.035,727.561c0,26.954-26.264,73.262-70.496,86.394c-32.484,10.367-102.289,9.676-143.757-5.529
		c-42.16-15.205-91.921-56.675-114.729-78.1c-21.425-22.808-46.306-56.673-61.511-87.774
		c-14.514-31.102-13.823-71.188-13.823-102.98c-0.691-32.483-1.382-308.248-1.382-311.704c0-4.146-0.691-5.529,4.838-5.529
		c6.911-0.691,98.142-2.074,105.053-2.074c6.221,0,8.294,1.383,11.059,3.456c2.765,2.765,53.218,48.38,61.511,57.364
		c6.911,6.221,6.911,8.294,6.911,2.074v-55.292c0-6.911,0.691-8.984,8.294-8.984s98.142-0.691,102.979-0.691
		s9.676,1.382,15.896,6.22c4.838,6.22,84.319,79.481,87.775,83.628c2.764,3.456,3.456,3.456,3.456,11.058
		C833.8,326.009,831.035,695.077,831.035,727.561 M718.379,545.1c-0.691-53.218-2.765-306.866-2.765-311.012
		c-0.691-4.838-0.691-5.529-4.147-5.529c-4.146,0.691-73.26,0.691-79.48,1.382c-6.221,0-5.529,2.073-5.529,4.838
		c0,3.456,0.691,306.866,0,327.6s-1.382,62.203-44.924,62.894c-44.233,1.382-55.291-27.646-55.291-58.747
		c-0.691-31.792-2.765-328.291-2.765-331.056c0-3.456,0.691-4.838-2.765-4.838H439.16c-4.147,0.691-4.147,2.765-4.147,7.603
		c0,3.456,4.147,315.159,4.147,326.909s0.691,64.967,39.395,105.053c38.013,41.468,77.408,44.232,95.377,44.232
		s72.569-4.146,106.435-44.924C714.232,629.419,719.762,598.317,718.379,545.1"/>
	<path fill="#FFFFFF" d="M1304.463,802.896c-0.69,11.749-3.455,15.205-6.911,16.587c-4.146,0.69-96.759,0-105.053,0
		c-6.911-0.691-10.367-1.382-17.278-5.529c-5.529-4.146-64.967-42.161-71.879-47.69c-6.22-5.528-6.22-3.455-6.22,2.074v43.543
		c0,8.293-4.147,7.603-10.367,8.293c-6.221,0.691-111.965,0-116.111-0.69c-4.146,0-6.22,0-11.059-3.456
		c-4.146-4.146-78.789-72.57-84.318-77.408c-5.529-4.147-6.221-6.912-6.221-14.514c0-6.221-0.69-194.901-0.69-240.517
		c0.69-46.307,2.073-252.266,2.073-256.413c0.69-5.529,1.382-6.22,7.603-6.912c6.22-0.691,92.612-1.382,100.906-1.382
		c8.293-0.691,11.749,2.073,17.97,5.529c6.22,4.147,71.878,41.468,81.554,49.071c8.294,7.603,6.221,3.456,6.221-1.382
		c0-5.529,0.691-40.777,0.691-46.307c0-6.911,0.69-6.911,6.22-6.911c6.911,0,102.288,0.691,112.655,0.691
		c9.676,0.691,12.44,2.074,17.97,6.22c4.147,2.765,19.353,13.132,38.704,29.719c19.352,17.278,26.954,28.336,33.175,33.866
		c6.911,6.22,6.22,9.676,6.911,22.116C1301.699,323.245,1304.463,791.838,1304.463,802.896 M1189.734,707.518
		c0-4.838-2.073-470.665-2.073-474.121c-0.691-2.765-2.073-4.146-5.529-4.146c-4.146,0-76.716,2.764-79.48,2.764
		c-2.074,0-3.456,0-3.456,6.22v254.339c0,8.985,1.382,17.279-6.911,0.691c-7.603-16.587-45.615-110.582-60.82-144.448
		c-15.205-33.174-50.453-112.655-51.836-115.42c-1.382-3.456-1.382-4.146-4.838-4.146c-2.765,0-84.318,2.073-89.156,2.764
		c-4.838,0.691-3.456,2.765-3.456,4.838c0.691,3.456,0,203.886-0.691,264.015c-0.69,60.129,0.691,203.886,0.691,207.342
		c0,4.146-0.691,5.529,2.765,5.529s78.099-1.383,82.245-2.766c4.838,0,6.221,1.383,5.529-7.602c0-8.985-2.073-266.089-2.073-276.456
		c0-11.058,3.456-3.456,4.838,1.383c2.765,4.146,120.258,276.455,122.331,281.293c2.765,4.838,2.765,6.22,6.912,6.22
		c4.146,0,76.716-2.764,80.863-2.764C1189.043,713.047,1189.734,712.355,1189.734,707.518"/>
	<path fill="#FFFFFF" d="M1562.947,869.937l-11.058,12.44l-15.896,6.911l-11.749,0.691h-152.742l-16.587-2.073l-12.44-10.367
		l-6.911-22.808l0.69-16.587v-30.41l2.074-13.132l10.367-9.677l19.352-4.839l14.514-0.69l12.44,0.69l8.985-2.765l0.69-20.043
		v-10.367l4.147-10.367l0.691-3.455l-2.074-5.529l4.147-4.146l-1.383-4.147l-3.456-6.911l3.456-4.146l1.383-4.147h-2.073
		l-4.839-4.838v-6.911l3.456-3.455l-0.691-6.912l-2.073-12.44l-0.691-11.749v-23.499l0.691-18.661l5.529-21.425l2.765-7.603
		l-5.529-1.382l-3.456-6.912l2.073-9.676l4.147-4.838l2.073-2.765l-2.073-4.146l-2.073,2.073l-2.074-2.765l-2.073-10.367v-11.749
		l3.456-7.603l6.911-2.074h3.456v-1.382l-0.691-2.073l-2.073-1.382l-3.456-2.073l1.383-1.382v-2.765l2.765-5.529l-0.691-3.456
		l0.691-2.073v-1.382l-1.383,2.073l-2.073,4.838l-0.691,2.074v1.382l-0.69,2.765l-2.765-3.456l-3.456-11.058l0.691-7.603
		l-0.691-2.073l-0.691-5.529v-10.367l3.456-12.44l1.383-4.838l-2.766-5.529l-2.073-11.059v-35.248l0.691-12.44l-0.691-11.75V344.67
		l0.691-12.44l0.691-11.75l0.69-12.44l-2.073-11.75v-24.189l1.383-12.441l-1.383-11.749l0.691-9.676l-0.691-2.765v-13.131
		l-7.603-3.456h-42.159l-13.822-7.603l-5.529-10.367v-49.762l0.69-17.97l4.839-17.278l11.058-5.529l11.75-2.073l16.587-0.691
		l17.97,0.691h119.566l16.588,1.382l15.896,4.147l7.602,9.676l4.147,9.676l1.382,11.058v63.584l-0.691,22.808l0.691,20.043v18.661
		l-0.691,15.205l-0.69,6.22l-0.691,3.456l0.691,6.911l1.382,11.75v107.126l-1.382,5.529l-1.383-0.691l-2.073,2.073h1.383l0.69-0.691
		h1.383l1.382,6.22v64.967l-1.382,11.059l1.382,11.749v11.059l-0.691,7.603l-1.382,9.676l-2.073,9.676l-5.529,2.765l-2.765,4.147
		v2.765l2.073-1.382h5.529l4.838,11.749l-4.146,17.279l-3.456,7.603l4.838,3.456l2.765,10.367v36.631l-2.765,17.277l-0.69,15.205
		l0.69,17.97l1.383,0.691v1.382l-0.691,1.383l2.073,7.603v12.44l-2.765,10.367l-4.146,4.838v2.765l1.382,4.146l-0.69,3.456
		l3.455,4.146l2.765,9.676v91.923L1562.947,869.937z M1348.695,800.822l-0.691-2.073l1.382-1.382l-1.382-1.383l-1.383,1.383
		L1348.695,800.822z M1363.209,862.334l-2.073-0.691l-2.765,2.073l-4.838,6.912l-2.074,2.073l5.529-1.383l5.529-6.911
		L1363.209,862.334z M1357.68,798.749v-2.073l-2.073-0.691v2.074L1357.68,798.749z M1356.988,155.989l1.383-2.074l-0.691-1.382
		l-1.383,2.074L1356.988,155.989z M1358.371,164.283l0.691-1.382l-2.074-2.073l-0.691,1.382L1358.371,164.283z M1358.371,815.336
		l1.382-0.69l-1.382-0.691l-2.074-2.765l0.691,2.765L1358.371,815.336z M1360.444,840.908l-1.382-1.382l0.69,2.073l1.383,1.383
		L1360.444,840.908z M1361.136,174.65h4.838v-1.382l-4.838,0.691V174.65z M1366.664,793.911l2.074,1.382v0.691l1.382-2.073
		l-2.765-3.456l-3.455,1.383L1366.664,793.911z M1364.591,878.921l2.765,0.691v-1.382L1364.591,878.921z M1373.576,821.557v-6.221
		l0.69-6.22l-4.146-2.073l-2.765,4.146l0.691,3.456v1.382l1.382,3.456l2.073,3.456l1.383,2.072L1373.576,821.557z M1376.341,856.805
		h-2.765l2.073,2.073l2.073-0.69L1376.341,856.805z M1378.414,850.584l0.691,0.691l-0.691-2.764l-0.691-0.691L1378.414,850.584z
		 M1381.869,797.367l1.383-1.383l2.765-1.382l-0.691-1.383l-2.765-0.69l-1.382,2.073L1381.869,797.367z M1391.546,214.045h-2.074
		l1.383,1.382h2.073L1391.546,214.045z M1395.001,203.678h-0.69l2.073,3.456h0.69L1395.001,203.678z M1397.074,834.688l-0.69-2.765
		l-1.383,2.765l0.691,2.765L1397.074,834.688z M1406.06,840.908l2.765-3.455l1.382-6.221l-0.69-5.529l-1.383-3.455l-0.691-2.074
		h1.383l2.765,1.383l2.073-0.691l2.073-3.455l2.765-2.765l2.765-2.073l2.765-0.691l3.455,1.383l4.838,0.69h5.529l4.838,3.456
		l1.383,4.146l0.691,2.765l1.382-2.073l-0.691-2.765l-1.382-2.765l-4.838-6.221l-5.529-2.764l-5.529,2.764l-2.765-0.69l0.691-2.765
		l-1.383-0.691l-4.146,2.765l-2.765,2.765l-0.691,2.073l-3.455,1.382l-6.912,1.383l-3.455-2.765l1.382-5.529l-1.382-0.69
		l-4.838,5.529l-1.383,4.838l1.383,3.455l4.146,8.294l2.073,8.294L1406.06,840.908z M1403.295,783.543l0.691,2.766l-1.383,6.911
		v1.383h1.383l4.146,0.69l6.221-1.382l2.764-4.147l-2.764-5.529l-2.765-2.074l2.073,3.457l-1.383,4.838L1406.75,787l-2.764-4.148
		h-1.383L1403.295,783.543z M1403.295,822.248l2.765,0.691l-1.383,1.382L1403.295,822.248z M1407.441,194.002l0.691,0.691
		l1.383-2.765L1407.441,194.002z M1410.206,875.466h-1.382l-1.383,0.69l2.765,0.691h1.383L1410.206,875.466z M1415.735,845.056
		l-0.691-1.383l-3.455,2.765l-1.383,5.529h2.073l1.383-3.455l0.691-2.766L1415.735,845.056z M1413.662,632.184l2.073-1.382
		l2.073-2.765l-1.382-4.147l-2.765-4.838l-2.073-1.382l0.69,3.456l1.383,6.221l-0.691,4.838H1413.662z M1415.044,220.265
		l1.383-1.382v-0.691l-2.073,0.691l-0.691,2.073l0.691,1.382h1.382L1415.044,220.265z M1415.044,775.249l0.691-1.382l2.765,2.073
		l2.765,3.456l3.455,2.072l-0.69-2.764l-3.456-6.221l-4.146-0.691l-2.765,2.766l0.691,1.382L1415.044,775.249z M1417.117,432.444
		l-2.764-0.691l2.073,1.382l3.455,0.691L1417.117,432.444z M1416.427,574.819l-2.073,2.074l1.382,1.382l2.073-2.073
		L1416.427,574.819z M1419.191,760.044h8.984l8.984,2.073l4.147-0.691l-1.383-2.764l-2.765-1.383l-2.764-0.691l-4.838-1.382
		l-4.147-5.529l-2.073-4.146h-2.073l0.69,3.456l-2.764,4.838l-2.074,1.382l-2.073,2.765l1.383,2.765L1419.191,760.044z
		 M1418.5,209.898l1.382,0.691l2.073-0.691l-4.146-2.765l-2.073-2.073l0.691,2.073L1418.5,209.898z M1417.809,319.098v-2.765
		l-2.073-1.382v2.764L1417.809,319.098z M1415.735,409.637v1.382l1.382-1.382v-2.073L1415.735,409.637z M1419.191,647.389h0.69
		l-1.382-3.456L1419.191,647.389z M1419.191,304.584l0.69,1.382l0.691-1.382l-1.382-2.074V304.584z M1421.265,670.887l-1.383-3.455
		l0.691,2.073l-1.382,1.382v2.074L1421.265,670.887z M1422.646,474.604l0.691,3.456l2.073,1.382l0.691-2.765l-1.383-7.603
		l-1.382-6.22l0.691-2.765l-0.691-1.382l-0.691,2.765l1.383,4.838l-0.691,2.765l-2.073,0.691l-0.691,1.383L1422.646,474.604z
		 M1421.955,597.626l0.691-3.456l-0.691-2.765l-0.69,2.073v4.838L1421.955,597.626z M1424.72,568.599l1.383,0.691v-0.691
		l-0.691-3.456v-3.456l-2.765,1.382l-0.691,2.765L1424.72,568.599z M1424.72,709.591l-2.073,2.073v2.074h1.383l2.073-2.766
		L1424.72,709.591z M1428.176,441.429l-3.456,3.456l-0.69,4.838l2.765,2.765l2.765,1.382l0.69-3.456l0.691-6.911L1428.176,441.429z
		 M1435.087,531.277l2.765-2.073l-2.765-0.691h-8.984l-2.073,1.382l3.455,2.765L1435.087,531.277z M1426.794,719.267l4.146-4.146
		l2.073-2.765l-2.765-0.691l-2.765,1.383l-1.382,4.838l-1.383,6.911l-0.69,4.147l1.382-0.691l3.456-1.383l-1.383-1.382l-1.382-2.073
		L1426.794,719.267z M1426.794,825.012l-2.765-0.69l1.382,2.073h3.456L1426.794,825.012z M1424.72,217.5v1.382l1.383,1.382
		l-0.691-2.073L1424.72,217.5z M1430.249,549.247l1.383-0.691l-4.147-0.691l-0.69,1.383H1430.249z M1464.807,662.594l-4.147,0.691
		l-4.146-0.691l-2.765-4.838l0.691-3.456l1.382-2.765l-0.691-6.221v-5.528l-2.073,2.073l-0.691,1.382v2.073l1.383,4.147l0.691,3.456
		l-2.074,2.764l-1.382,4.147l-1.382,6.22l-1.383,5.529l-3.455,4.146l-3.456,3.456l-1.383-1.382l-1.382-2.074l-2.765-2.072
		l-3.456-2.766l-3.455-0.69l-2.073,3.456l0.69,1.382l1.383-1.382l1.382-0.691l2.765,2.764v3.456l-3.455,4.838l0.69,1.383
		l4.147,2.073l3.455,2.073l4.146,2.765l4.147,2.073l2.073-1.382l2.073-0.691l-0.69-1.383l-4.147-3.455l-4.838-1.383l-5.529-0.69
		v-2.073l4.838-3.456h5.529l5.529,0.69l2.765-4.146l2.765-1.382l4.146,1.382l2.765-2.764l2.073-6.912L1464.807,662.594z
		 M1429.559,657.756l-2.074,2.764l2.765-0.69l1.383-2.073H1429.559z M1430.94,643.242l4.146-2.765l-1.382-0.691l-4.146,3.456
		l-1.383,2.073L1430.94,643.242z M1430.94,496.029l1.382-0.691v-5.529l1.383-2.765h-1.383l-2.764,4.147L1430.94,496.029z
		 M1435.087,704.062l-4.146,2.765l-1.382,0.691l0.69,0.691l0.691,1.382l2.765-0.69l2.765-4.839H1435.087z M1435.778,851.967
		l-4.838,4.838l-0.691,1.383l4.147-4.147l2.073-1.382l0.69-1.383L1435.778,851.967z M1433.705,343.979l-0.691-1.382l-1.382,0.691
		v1.382L1433.705,343.979z M1443.381,746.221l4.146,2.766v-4.147l-4.146-6.22l-5.529-1.383l-4.838,3.456v5.528l1.383,2.766
		l2.073,1.382h1.382l-1.382-1.382l-2.073-0.691l-0.691-1.383l0.691-2.073l4.146-0.69L1443.381,746.221z M1435.087,842.291
		l-1.382-0.691l-0.691,2.073L1435.087,842.291z M1433.705,464.237l2.073,4.838l4.146,3.456l4.839,0.691l3.455-2.073l0.691-2.074
		l-4.146-0.691l-5.529-2.074l-3.456-4.147l2.073-2.764l8.985,3.456v-1.382l1.382-2.765l2.073-2.073h-6.22l-6.221,1.382l-4.146,2.073
		V464.237z M1436.47,871.318l-0.691-2.073l-1.382,1.383l-0.691,3.455h0.691L1436.47,871.318z M1434.396,211.971l2.764,4.838
		l3.456,2.074v-3.456l-4.146-4.838L1434.396,211.971z M1435.778,385.447h1.382l-0.69-2.074l-2.073-1.382L1435.778,385.447z
		 M1439.234,337.758l-2.765-2.073v-2.073l-1.383,2.073l2.765,4.147l12.44,6.911l4.147,0.691l1.382-2.765h-1.382l-6.912-2.073
		L1439.234,337.758z M1455.13,743.457l4.147,2.764l4.838,4.147l1.382,6.22h6.911l-2.073-2.764l-4.838-4.838l-2.073-4.147
		l-2.073-3.456v-4.838l3.456-5.529l0.69-3.455l1.383-2.765l0.69-4.146l-6.911-3.456l-8.294,0.691l-1.382,2.765l0.691,2.765h-1.383
		l-2.073-0.691l-3.455,1.383l-4.839,2.764l-2.765-0.691l-0.69,1.383v3.455l3.455,0.691h5.529l6.221-1.382l5.528-4.838l5.529-1.382
		l2.765,3.455l-2.073,1.383l-4.146,2.072l-2.074,4.147l-1.382,4.146L1455.13,743.457z M1441.308,789.073v-2.765l-1.383-2.074h-2.765
		l-0.69,2.766l1.382,2.073l0.691,0.69l2.073,0.691L1441.308,789.073z M1437.852,538.88l2.765-0.691l0.691-1.382h-1.383l-1.382,0.691
		L1437.852,538.88z M1439.234,443.503l1.382,5.529l2.073,2.765l2.074-2.074l-3.456-6.911L1439.234,443.503z M1443.381,846.438
		h-3.456l2.765,1.383l2.765-0.691L1443.381,846.438z M1444.072,600.391l1.382,0.691l-0.69-0.691l1.382-1.382l0.691-2.073
		l-2.073,1.382h-1.383v-2.073l-1.383-2.073v2.073L1444.072,600.391z M1445.454,493.956l4.147,1.382l4.146,2.073h3.455l2.074-4.838
		v-5.529l-1.383-2.765l-2.073,2.765l-2.073,5.529l-3.456,2.074l-3.455-1.382l-2.073-4.147l-2.074-1.382v2.074L1445.454,493.956z
		 M1444.764,643.933l-1.383,2.765l2.073-1.383l1.383-2.764L1444.764,643.933z M1444.764,256.204l0.69-0.691v-3.456l-1.382,2.765
		L1444.764,256.204z M1450.292,385.447l1.383-1.383l-2.073-1.382l-2.765-0.691h-2.765l1.382,2.765L1450.292,385.447z
		 M1446.837,415.166l1.382-0.691l-0.691-3.456v1.382L1446.837,415.166z M1551.198,719.267l-15.205-1.382l-12.44-4.838l-5.529,0.691
		l-6.911,2.764l-2.765-1.382l6.912-5.529l6.22-4.838l1.382-8.294l-0.69-8.293l-1.383-11.059l2.073-4.146l4.147-2.074l2.765,1.383
		l1.382-2.073v-7.603l-2.765,2.764l-4.838,2.074l-5.529,1.382l-3.455,4.147l0.691,8.293l-1.383,4.147l-4.838,0.69l-2.765,1.383
		h-0.691v-2.073l0.691-1.383v-1.382l-1.382-4.146l-3.456-2.074l-5.529,1.383l-3.456,0.691l-2.073-1.383l-5.528-1.383l-6.912,1.383
		l-4.146,4.146l-2.073,2.765l-2.073-2.073l-4.147-2.765l-0.69,2.073l10.366,6.912l-1.382,3.455l-2.765,4.146l1.382,2.074
		l2.074-1.383l0.69,2.765l0.691,4.838v2.765l-0.691,0.691l-2.765-1.383l-5.528-4.146l-6.221-3.455h-4.838l0.691,2.764l0.69,4.838
		l-1.382,2.766l-1.382,0.69l-4.147,1.382l-1.382-2.072l-2.073-1.383l1.382,2.073l2.073,2.073l3.456,0.691l6.22-0.691l5.529-0.691
		h4.147l1.382,1.383v3.455l1.382,3.456l0.691-1.382l1.383-3.456l2.073-2.073l1.382-4.146l1.383-1.383l1.382-2.073l3.456-4.147
		l0.691,3.456l-0.691,3.456l1.382,2.765v5.528l0.691,2.766l1.382,1.382h2.074l0.69-3.456v-4.146l0.691,0.691l2.073,1.382l1.383-0.69
		l1.382,0.69l0.691,2.765l-0.691,3.456v4.838l5.529,2.073l6.22-1.383l6.221-2.764l4.838-3.456h2.073l-2.765,5.529h2.074l1.382-4.838
		l0.691-3.456l1.382-1.383l3.456,1.383l5.529,2.073l6.22,2.073l2.765,3.456l-3.456,0.691l-5.528-0.691l-2.765,1.382v3.456
		l-4.147,2.073l-3.455,2.074l-0.691,0.69v2.073l2.073-0.691v4.147l-1.382,4.838l3.455,1.382l4.147-4.146l2.765-5.529l2.073-1.382
		l2.765-0.691l-2.073-0.69l-0.691-2.074l2.073-2.073l6.22-0.69l6.912-2.074l2.765-4.146L1551.198,719.267z M1447.527,596.244
		l0.691-0.691l0.691-2.074l-0.691,1.382L1447.527,596.244z M1447.527,769.029l2.074,0.69l0.69-1.382l-1.382-0.691L1447.527,769.029z
		 M1449.602,334.303l0.69-2.073l1.383-2.073l0.69-2.765l-2.073,0.691l-2.073,4.147L1449.602,334.303z M1448.219,394.432l1.383,2.074
		l2.073,2.073l-1.383-2.073L1448.219,394.432z M1455.821,822.248l-2.765,1.382l-1.382,4.838v4.147l-3.456,4.146l3.456-3.455
		l2.073-5.529l2.765-4.147l1.382-1.382H1455.821z M1452.365,854.731l-2.073-0.691l-2.073,2.073l0.691,1.383l1.382-1.383
		L1452.365,854.731z M1451.675,512.616l-0.691-2.073l-1.382,1.382l0.69,2.074L1451.675,512.616z M1451.675,563.069l2.073-1.382
		l2.073-3.456v-1.382l-3.456,2.764L1451.675,563.069z M1453.748,413.784v1.382l1.382,0.691l0.691-2.073H1453.748z M1456.513,628.728
		l-0.691-1.382h-2.073l0.691,1.382H1456.513z M1459.277,619.052l-2.074-0.691v-1.382l-1.382-2.074l-1.382,0.691l1.382,3.456
		l2.765,0.691L1459.277,619.052z M1456.513,406.872h1.382l-0.691-0.691h-2.073L1456.513,406.872z M1456.513,305.966l2.073-1.382
		l0.691-0.691h-0.691l-2.765,1.382L1456.513,305.966z M1456.513,688.166l2.765-0.691l-0.691-2.073l-2.765,0.69L1456.513,688.166z
		 M1469.645,783.543l-4.147-0.691l-4.838-2.073l-4.146,1.382v2.766l4.146,1.383l2.765,0.691l1.383,2.764v-1.382l-1.383-2.765
		l1.383-1.383h2.073l2.765,0.691l2.073-1.383H1469.645z M1457.203,451.796l2.074,1.382l0.69-2.765L1457.203,451.796z
		 M1469.645,605.229v-2.073l1.382-0.691v-11.75l-0.691-1.382l-2.765,3.456l-4.146,0.691l-3.456-1.382l-2.765,0.691l2.765,1.382
		l2.765,2.765l2.074,4.838l3.455,4.146L1469.645,605.229z M1459.968,321.862l-1.382-1.382l-0.691,1.382l2.073,4.147h4.839
		l-0.691-2.074L1459.968,321.862z M1457.895,439.356l1.383,0.691l0.69-1.382L1457.895,439.356z M1459.277,467.001l1.382-1.382
		l-1.382-0.691l-1.383,1.382L1459.277,467.001z M1468.262,773.176l-2.073-2.765l-2.073-3.456l-4.147-1.382l0.691,4.146l5.529,4.839
		l2.765,1.382L1468.262,773.176z M1471.026,804.969l-2.765-2.764l-5.529-2.074l-2.765-2.764v4.838l2.765,0.691l4.147,2.072
		l2.765,2.766l1.382,0.69V804.969z M1462.732,358.493l0.691-1.382l-1.382-3.456l-1.383-0.691v3.456L1462.732,358.493z
		 M1462.042,286.614l1.382-1.382l-0.691-2.073l-1.382,1.382L1462.042,286.614z M1462.042,537.498l1.382,0.691l0.691,2.073
		l0.691,1.383v-1.383l-1.383-2.764l-1.382-0.691h-0.691L1462.042,537.498z M1482.085,671.578l2.073-2.073l0.691-4.147l-2.765-6.91
		l-2.073-7.604l-2.766-4.146l-5.528-2.073l-2.765-4.838l-3.456-4.147l-2.765,2.073l-0.69,5.529l2.765,3.456l5.528,1.383l4.147,4.146
		l3.455,5.529l-2.073,3.455l1.382,3.456l2.766,3.456l-3.456,2.764l-2.073,2.074l2.073,0.691l2.073-1.383h1.383L1482.085,671.578z
		 M1464.807,518.837l4.838,1.382l-0.691-2.073l0.691-2.073l-2.765,1.382h-3.456L1464.807,518.837z M1464.807,407.563l1.382,2.073
		l-0.691-1.382l-1.382-2.074L1464.807,407.563z M1467.57,838.835l-0.69-1.382l-2.765,2.764v2.074l2.073-0.691L1467.57,838.835z
		 M1471.026,500.176l4.838,0.691v-2.765l-4.838-0.691V500.176z M1473.791,444.194h1.382l1.383-1.382l0.69-2.073l-0.69-0.691
		l-2.073-0.691h-2.074l-0.69,2.073l0.69,4.147L1473.791,444.194z M1476.556,422.769l2.073,2.765l0.691,2.073l1.382-2.073
		l-1.382-2.765l-3.456-2.073l-3.456,0.691L1476.556,422.769z M1475.173,377.153l0.691-0.691l-1.382-0.691l-1.383,0.691
		L1475.173,377.153z M1476.556,538.88v-2.074l-2.765-1.382v2.074L1476.556,538.88z M1477.938,746.221l4.838,3.456l2.765,1.382
		l-2.073-2.764v-2.765l2.765-1.382l2.765-4.147l3.455-4.147l4.147-2.072l-4.838,1.382l-6.221-2.073l-2.073-4.838l-0.691-0.691
		l-3.455,2.073l0.691-2.765l0.69-3.455l-0.69-2.765v2.073l-2.766,3.455l-2.073,4.147l1.383,3.456l-1.383,4.146l-1.382,5.529
		L1477.938,746.221z M1481.394,399.961l-0.691-1.382l-0.69-3.456l-1.383-2.073l-2.073,0.691l-2.073,1.382l0.69,0.691l3.456,2.074
		L1481.394,399.961z M1476.556,323.936v2.074l2.073,1.382l4.146-0.691l-4.146-1.382L1476.556,323.936z M1480.012,720.649
		l-0.691-2.073l-0.691-4.838v-1.383l-1.383,2.073l-0.69,2.765L1480.012,720.649z M1478.629,479.442l1.383,2.765h0.69l-0.69-2.074
		L1478.629,479.442z M1483.467,767.646l3.456-4.146l-0.691-2.765l-2.765-1.382l-2.073-4.147v1.382l-0.691,3.456l1.383,4.147
		l-0.691,0.69l-2.765-0.69l0.691,1.382l1.382,2.073H1483.467z M1480.702,616.287l-0.69-1.382l-0.691,1.382H1480.702z
		 M1480.012,789.764l-0.691,1.383l2.073,6.221h2.765l-1.383-0.691l-2.073-3.456L1480.012,789.764z M1482.085,402.726v-1.382
		l-0.691-1.382l-1.382,2.765l0.69,2.073L1482.085,402.726z M1480.012,511.925l2.764,0.691l6.912,0.691l2.764-1.382l-1.382-2.765
		v-2.073l0.691-4.147v-5.529h-3.456l-2.073,3.456l2.765,4.146l-0.691,2.765l-5.529,2.074L1480.012,511.925z M1482.775,587.951
		l1.383-0.691l-2.073-0.691l-0.691,0.691L1482.775,587.951z M1481.394,617.669l0.691,4.147l0.69,2.073l-0.69-5.529L1481.394,617.669
		z M1486.231,787l-4.146-0.691l-0.691,0.691l4.146,0.691l2.073,0.69L1486.231,787z M1494.525,650.844l2.765,1.383l2.073-3.456
		l2.073-5.529v-2.765l-2.073,2.074l-2.073,2.764l-3.456-0.69l-3.456-3.456v-5.529l2.765-4.838l3.456-2.765l5.529,0.691l4.146,0.691
		l-1.382-2.765l-4.147-4.147l-1.382-2.073l-3.456,2.073l-4.146,4.147l-2.073,4.838l-2.765,4.147l-2.073,0.691l-0.691-2.073h-1.383
		v1.382l1.383,5.529l2.073,7.603l4.146,1.383L1494.525,650.844z M1487.613,840.908v-1.382l-2.764-2.073l-2.074-0.691l1.383,2.765
		L1487.613,840.908z M1483.467,149.078l2.073-0.691v-1.382l-2.073,1.382V149.078z M1486.231,690.93l-1.382-3.455h4.146l0.691,3.455
		H1486.231z M1485.54,365.404l1.383,0.691l-0.691-2.074l1.382-2.073l0.691-2.765l-2.073,2.074L1485.54,365.404z M1486.923,489.809
		l2.765-0.691l-1.383-1.382l-2.765,0.691L1486.923,489.809z M1486.923,437.282l2.073-2.073l0.691-2.073l-2.765,2.765V437.282z
		 M1486.923,471.148l0.69,2.764l0.691,1.382l2.073-2.073l-1.382-2.765L1486.923,471.148z M1491.069,538.88v2.765l-0.691,2.764
		l2.073,2.765l1.383,1.382h1.382l2.074-0.691l-1.383-1.382l-1.382-4.147l-1.383-2.765l-1.382-1.382l1.382-4.146l-3.455,2.073
		l-1.383,1.382L1491.069,538.88z M1491.069,520.219v-1.382h-2.073v2.765L1491.069,520.219z M1491.761,860.261l-2.073,3.455
		l-0.691,4.147l1.382,2.073l1.383-2.073v-3.456l1.382-5.529l1.383-2.073L1491.761,860.261z M1489.688,449.032l1.382,1.382
		l0.691-1.382l-2.073-2.073V449.032z M1509.039,688.857l3.456,1.382v4.146l2.073-2.073v-2.765h2.073l2.073,2.765v5.529l1.383,4.838
		l-0.691,1.382l-2.073-2.073l-1.383-2.073l-5.529-0.691l-6.22,2.073l-4.146,2.765l-2.074,2.073l-2.073,3.456l-4.838,1.382
		l-1.382-4.838l4.146-6.22l4.146-3.456v-2.764l1.383-3.456l4.146-1.382H1509.039z M1498.672,773.867l-5.529-1.383l-3.455,3.456
		l0.69,4.146l4.147-1.382l4.838-2.765L1498.672,773.867z M1520.098,646.697l2.764-0.691l-4.838-4.146l-6.911-0.691l0.691,4.146
		l3.456,5.529l0.69,4.147l-1.382,0.69h-2.765l-2.073-1.382l-3.456-0.69l-4.838,3.455l-2.765,4.838l-2.765,0.691l-2.765-2.074h-1.382
		l1.382,1.383l0.691,2.073l0.691,5.529l2.073,0.691l1.382-2.765l2.074-1.383l4.838-4.146l6.22-2.765l4.838-4.146l1.383-6.221
		L1520.098,646.697z M1503.51,809.808l2.073-4.147l0.691-2.764h3.456l4.146,2.072l4.146,0.691l2.074-0.691l-2.074-2.764
		l-4.838-3.456h-6.22l-6.221,4.147l-4.146,4.146h-3.456l-0.691,0.691l2.765,2.073l4.147-2.073l0.691,0.69l-0.691,2.765l-2.073,4.146
		l1.382-0.69L1503.51,809.808z M1497.29,388.903l-3.456,1.382l-0.691,3.456l7.603,11.75l1.383,1.382l3.455,0.691l-3.455-4.838
		l-2.073-6.22l-0.691-5.529l-1.383-3.456L1497.29,388.903z M1495.907,412.401l-1.382-1.382l-1.383,1.382v3.456l0.691,5.529
		l3.456,3.456v-2.073h1.382l4.146,0.691l-1.382-2.073l-4.838-4.838L1495.907,412.401z M1497.98,612.832l-1.382-2.765l-0.691-0.691
		l-1.382,1.382l1.382,2.073H1497.98z M1497.98,201.604l0.691-1.383l-1.382-1.382l-1.383,1.382L1497.98,201.604z M1496.599,462.854
		l2.073,1.382l4.838-2.074l-1.382-5.529l-4.147-3.456l1.383,3.456v4.838L1496.599,462.854z M1497.29,547.864h0.69l4.147-1.382h2.073
		l0.691,1.382l0.69-1.382l-0.69-0.691l-1.383-0.691l-2.073,0.691h-1.382l-1.383,0.691L1497.29,547.864z M1500.745,755.206
		l-3.455-2.765l1.382,2.765l2.765,2.073L1500.745,755.206z M1497.98,741.383l1.383,3.456l4.146,1.382l-0.691-2.764l0.691-3.456
		l-1.382-0.691l-3.456,0.691L1497.98,741.383z M1500.055,849.894l2.073,1.382l-0.691-1.382l-2.073-0.691L1500.055,849.894z
		 M1501.437,338.45l2.765,1.382l2.765-2.765l0.69-2.073l-1.382,1.382l-1.382,2.074l-1.383,0.691l-1.382-1.382l-1.383-2.073
		L1501.437,338.45z M1502.818,383.374l-1.382-2.073l0.691-0.691l0.69-2.764l-1.382-0.691l-0.691,3.456L1502.818,383.374z
		 M1506.966,586.568l-2.765,0.691h-2.073v-1.382l1.382-4.838l1.383-3.456l-2.074,2.765l-2.073,5.529l0.691,3.456l3.456-1.382
		L1506.966,586.568z M1503.51,291.452v4.147l4.146-0.691l-0.69-4.838L1503.51,291.452z M1509.039,840.908l-1.383-1.382h-1.382
		l-1.382,0.69l-1.383-0.69l1.383,1.382h2.073l1.382,3.456l1.383,2.765v-2.765L1509.039,840.908z M1506.966,317.024l1.382-0.691
		l-0.691-2.073l-2.073,0.691l-1.382,1.382L1506.966,317.024z M1504.201,439.356l2.073,2.073l4.146-2.765l2.765-3.456l2.074-1.382
		h-2.074l-5.529,2.074L1504.201,439.356z M1504.893,601.082v1.382l1.382,4.147l0.691-1.382L1504.893,601.082z M1504.893,744.148
		l0.69,2.072l4.147-4.838l-2.074-2.764l-2.073,2.073L1504.893,744.148z M1507.656,469.766v-1.382h-1.382l-0.691,2.073
		L1507.656,469.766z M1506.966,347.435l1.382,2.073l-0.691,2.073l-0.69,1.382l2.765-0.691v-2.765L1506.966,347.435z
		 M1515.26,396.505h-1.383l-4.146-1.382l-2.765-2.073l0.69,2.073l4.147,2.073L1515.26,396.505z M1509.039,563.761l-0.691-0.691
		l-1.382,1.383h0.69L1509.039,563.761z M1517.333,777.322l0.69-1.382l-0.69-0.691h-3.456l-4.146,1.382v2.766l0.69-0.691l2.765-1.383
		l4.838,2.765l4.147,2.765l1.382,1.383l0.691-1.383l-4.146-3.455L1517.333,777.322z M1511.112,495.338l2.073,2.073l6.221,2.765
		l3.455-1.382l-2.073-2.765l-3.455-1.382h-2.765L1511.112,495.338z M1511.804,372.315l0.691,1.382l2.765-0.691l0.69-2.073
		l-2.073-0.691L1511.804,372.315z M1513.877,518.146l-1.382,1.382l4.838,1.382L1513.877,518.146z M1515.95,447.649v-2.073h-2.073
		L1515.95,447.649z M1522.171,787l0.69-1.383l-2.073,0.691l-5.528,2.765l0.69,1.382L1522.171,787z M1518.023,544.409l0.691-0.691
		l-0.691-0.691h-1.382L1518.023,544.409z M1519.406,580.348l-2.073-0.691l-0.691,2.074L1519.406,580.348z M1525.626,631.492
		l1.383-2.765l-3.456-2.073l-4.838-2.765l0.691-1.382l4.146-0.691l1.383-0.691l-5.529-2.073v1.382l-0.691,1.382l-2.073,0.691v2.074
		l2.073,3.456l2.073,0.691l2.073,2.074l3.456,5.529L1525.626,631.492z M1531.847,755.206l-0.691-1.382l-4.838-2.074h-6.22
		l-3.456,1.383l2.073,1.382h10.367l2.073,2.073L1531.847,755.206z M1522.171,827.086l-3.456-2.074h-2.073l1.382,0.691l5.529,4.147
		L1522.171,827.086z M1517.333,466.31l4.838,2.074l2.765-2.074l-0.691-3.456l-1.383-0.691l0.691,0.691l0.691,2.073l-2.765,0.691
		l-3.456-1.382L1517.333,466.31z M1526.317,555.467l-0.691-3.456l-4.838-2.764l-2.073-0.691l-1.382,1.382l0.69,4.147l3.456,2.765
		L1526.317,555.467z M1529.773,593.479l-0.691-2.765l-0.691,0.691l-2.073,3.456l-4.838,1.382l-2.073,0.691l-2.073,4.146l1.382-1.382
		l2.765-2.074l4.838-1.382L1529.773,593.479z M1525.626,487.044l3.456-2.074l1.383-2.764l-1.383-1.382l-5.529,0.691l-2.073,3.456
		L1525.626,487.044z M1521.479,764.882l1.382,3.456l2.765-1.383l-0.69-4.838L1521.479,764.882z M1522.171,258.277l2.073,0.691
		l2.765-0.691l-2.073-0.691L1522.171,258.277z M1523.553,534.733l1.383,1.382l-1.383-2.765V534.733z M1529.773,585.186v-3.456
		l-0.691-2.765v-1.382l-0.691,2.073l0.691,2.074l-2.073,2.073l-3.456,2.765l1.383,0.691h3.455l1.383,0.691l0.691-1.382
		L1529.773,585.186z M1524.244,442.812l4.146,0.691l2.074,2.764l2.764,2.765l4.147,1.382l2.765-2.073l-1.383-2.765l-3.455,1.382
		l-2.074-0.691l-2.764-5.529v-2.765l-2.074-0.691l-4.146,3.456V442.812z M1549.125,686.783l1.383-2.765l1.382-2.073v-2.765
		l2.073-2.765l1.383-3.455l-1.383-3.456l-1.382-0.691l-0.691,0.691l1.382,0.691l0.691,2.765l-0.691,3.455l-2.073,1.383l-1.382,2.073
		l-1.383,4.146l-1.382,3.456l-0.691,2.073h-1.382l-2.074-4.146l-4.838-4.147l-6.22-1.382l-4.147,1.382l-2.073,1.383l2.765,2.073
		l2.074,4.147l1.382,8.293l1.382,6.911l0.691,4.147l-0.691,2.764v2.766l2.074-0.691l3.455-3.456l3.456-0.69l6.22,1.382l4.147,1.382
		l2.073-0.691h-1.383l-0.69-1.382v-13.823l-2.073-6.22L1549.125,686.783z M1529.773,804.969l-2.765,3.456l-1.383,3.456v4.146
		l0.691-2.073l5.529-6.911L1529.773,804.969z M1529.082,225.103l0.691-2.074l-1.383-0.691l-0.691,2.073L1529.082,225.103z
		 M1529.773,312.877l-2.074,0.691l1.383,4.838v3.456l1.383,2.073l2.764,1.382l0.691-2.073l-1.382-6.22L1529.773,312.877z
		 M1533.229,422.077l-3.455-1.382l-2.074,2.073l3.456,4.146l2.073,0.691l0.691-2.765L1533.229,422.077z M1531.155,348.125
		l1.383-0.691l-1.383-0.691l-1.382,1.382H1531.155z M1532.538,545.791l-0.691-2.765l-1.382,1.382L1532.538,545.791z
		 M1535.303,607.303l-4.838,1.382l3.455,0.691l6.221-2.073H1535.303z M1531.847,493.956l0.691,2.074l-1.383,2.073l1.383-0.691
		l0.69-2.073L1531.847,493.956z M1533.92,473.913l1.383-1.382l-1.383,0.691l-2.073,2.073L1533.92,473.913z M1533.229,533.351
		l-1.382,1.382l1.382,0.691V533.351z M1534.611,652.918l-2.073-0.691l1.382,2.073L1534.611,652.918z M1536.685,782.852h-4.146
		l0.69,1.383v1.383l2.765,1.383l2.765-1.383L1536.685,782.852z M1533.92,818.792l-1.382,2.765l2.765-0.691l1.382-1.382
		L1533.92,818.792z M1533.229,410.328l0.691,1.382h1.383l-0.691-1.382H1533.229z M1536.685,569.981l-2.073-1.382l-1.383,1.382
		l1.383,1.382L1536.685,569.981z M1534.611,285.232l-0.691,1.382h1.383l1.382-2.073L1534.611,285.232z M1538.758,628.037
		l-0.691-1.382l-2.073-0.691h-2.073l1.383,0.691L1538.758,628.037z M1534.611,216.118l1.382,2.073l-0.69-2.073v-1.382l1.382-0.691
		h-2.073V216.118z M1535.993,726.178l-0.69,1.383l-0.691-0.691l0.691-1.382L1535.993,726.178z M1544.979,702.68l-7.603-2.074
		l-1.383-5.528l2.073-2.765l2.765,2.765l4.147,2.765l6.22-0.691l0.691,2.765L1544.979,702.68z M1541.522,496.72l-3.456,2.074
		l-1.382,2.764l3.456,1.382l4.146,0.691l0.691-1.382l0.69-0.691l2.074-0.691l-2.074-2.765L1541.522,496.72z M1536.685,797.367
		l1.382,1.382l2.765,1.382l-1.382-2.072L1536.685,797.367z M1543.596,809.808l-4.838-1.383l-0.691,1.383l4.147,1.382h3.455
		l0.691-0.691L1543.596,809.808z M1541.522,671.578l-1.382-2.073l-1.383,2.073l1.383,2.074L1541.522,671.578z M1540.831,489.809
		l2.765,1.382l0.691-1.382l-0.691-0.691l-2.073-0.691l-1.382-1.382L1540.831,489.809z M1543.596,634.257h-2.765l2.073,1.382
		L1543.596,634.257z M1542.214,749.677l0.69,2.073l3.456,4.147l4.147,4.146l1.382,0.691l-7.603-7.603L1542.214,749.677z
		 M1543.596,296.29v9.676l3.456-0.691l1.382-2.073l-2.765-3.456l-1.382-2.765v-2.765l1.382-3.456l2.765-2.765l0.691-1.382
		l-4.146,4.147l-2.074,2.764L1543.596,296.29z M1546.36,552.703l-3.456,2.073v2.074l3.456-1.383l2.073-2.073L1546.36,552.703z
		 M1544.979,617.669l-2.074,1.382l4.839,3.456l1.382-2.073L1544.979,617.669z M1549.125,768.338l-4.838-0.691l-1.383,4.146
		l1.383,2.766l0.691-1.383l1.382-1.383l1.383-0.69l1.382,1.382l2.765,0.691l1.382-1.383L1549.125,768.338z M1545.669,441.429
		l1.383-3.456l-0.691-5.529l-0.691-1.382l0.691,3.456l-0.691,4.147l-1.382,2.765v4.147l1.382,2.765V441.429z M1554.654,588.642
		l-2.073-0.691l-2.765-0.691l-2.073-0.691l-2.765,2.765l-0.691,5.529l1.382,2.765l2.074,0.691h3.455l3.456-3.456l0.691-4.147
		L1554.654,588.642z M1548.434,373.698l0.691-2.074l-2.765,0.691l-0.691,2.765L1548.434,373.698z M1548.434,592.098l2.074,3.456
		l-1.383,2.073l-2.073-2.765L1548.434,592.098z M1549.125,662.594l2.073-2.074l0.691-4.838l-1.382-4.838l0.69,4.838l-1.382,4.147
		l-2.765,1.382v0.691L1549.125,662.594z M1549.816,420.004l1.382-1.382l-2.765-2.765l-0.69,1.382L1549.816,420.004z
		 M1552.581,578.274l3.455-2.764h-2.765l-2.073,1.382l-3.455,5.529L1552.581,578.274z M1548.434,542.335l0.691,1.382l1.383,0.691
		v-1.382L1548.434,542.335z M1548.434,635.639l2.074,1.382l3.455,1.382l2.073-0.691v-2.764l-0.69,1.382l-0.691,0.691l-3.456-1.382
		H1548.434z M1548.434,736.545l2.074,2.074l1.382-0.691l-2.073-2.074L1548.434,736.545z M1550.508,300.437v0.691l2.764-2.073
		l-0.69-0.691L1550.508,300.437z M1554.654,823.63l0.691-2.073h-2.765l-0.691,1.383l2.073,2.072h2.765L1554.654,823.63z
		 M1553.963,462.163v-2.764l-1.382,1.382v2.765L1553.963,462.163z M1555.346,214.045l4.146,2.073l1.382-0.691l-4.146-2.764
		l-2.765-0.691L1555.346,214.045z"/>
</g>
</svg>
